<?xml version="1.0" encoding="UTF-8" standalone="no"?>
<svg
   xmlns:dc="http://purl.org/dc/elements/1.1/"
   xmlns:cc="http://creativecommons.org/ns#"
   xmlns:rdf="http://www.w3.org/1999/02/22-rdf-syntax-ns#"
   xmlns:svg="http://www.w3.org/2000/svg"
   xmlns="http://www.w3.org/2000/svg"
   xmlns:xlink="http://www.w3.org/1999/xlink"
   xmlns:sodipodi="http://sodipodi.sourceforge.net/DTD/sodipodi-0.dtd"
   xmlns:inkscape="http://www.inkscape.org/namespaces/inkscape"
   inkscape:version="1.0rc1 (09960d6, 2020-04-09)"
   sodipodi:docname="ti.svg"
   id="svg78"
   height="448.03308"
   width="630.11206"
   viewBox="0 0 630.11206 448.03308"
   preserveAspectRatio="xMidYMid meet"
   version="1.1">
  <metadata
     id="metadata82">
    <rdf:RDF>
      <cc:Work
         rdf:about="">
        <dc:format>image/svg+xml</dc:format>
        <dc:type
           rdf:resource="http://purl.org/dc/dcmitype/StillImage" />
        <dc:title></dc:title>
      </cc:Work>
    </rdf:RDF>
  </metadata>
  <sodipodi:namedview
     inkscape:current-layer="svg78"
     inkscape:window-maximized="0"
     inkscape:window-y="23"
     inkscape:window-x="0"
     inkscape:cy="223.0279"
     inkscape:cx="309.84783"
     inkscape:zoom="0.7984375"
     fit-margin-bottom="0"
     fit-margin-right="0"
     fit-margin-left="0"
     fit-margin-top="0"
     showgrid="false"
     id="namedview80"
     inkscape:window-height="480"
     inkscape:window-width="761"
     inkscape:pageshadow="2"
     inkscape:pageopacity="0"
     guidetolerance="10"
     gridtolerance="10"
     objecttolerance="10"
     borderopacity="1"
     bordercolor="#666666"
     pagecolor="#ffffff" />
  <defs
     id="defs18">
    <path
       inkscape:connector-curvature="0"
       id="aO6e76Sq3"
       d="m 196.73,382.77 c 5.02,2.29 10.96,0.07 13.25,-4.95 2.29,-5.02 0.07,-10.96 -4.95,-13.25 -5.02,-2.29 -10.96,-0.07 -13.25,4.95 -2.29,5.02 -0.07,10.96 4.95,13.25 z" />
    <path
       inkscape:connector-curvature="0"
       id="e3G52042Fs"
       d="m 127.43,142.58 c -2.42,-0.96 -21.75,-8.62 -24.17,-9.57 -15.38,-6.1 -32.85,1.46 -38.94,16.84 -5.16,13.02 -46.4,117.14 -51.56,130.16 -6.09,15.38 1.46,32.85 16.84,38.94 2.42,0.96 21.76,8.62 24.18,9.57 29.79,11.81 41.07,25.24 54.14,40.79 13.98,16.64 29.82,35.5 70.06,51.44 17.34,6.87 156.1,61.83 173.45,68.71 20.5,8.12 43.8,-1.96 51.92,-22.46 2.68,-6.77 3.37,-13.85 2.36,-20.58 0.5,0.2 4.5,1.79 5,1.98 20.51,8.13 43.8,-1.95 51.92,-22.45 2.69,-6.78 3.37,-13.85 2.37,-20.58 0.5,0.2 4.5,1.78 5,1.98 20.5,8.12 43.8,-1.95 51.92,-22.46 8.12,-20.5 -1.95,-43.79 -22.46,-51.92 -2.36,-0.93 -21.24,-8.41 -23.6,-9.34 5.35,-4.22 9.69,-9.84 12.37,-16.62 8.13,-20.5 -1.95,-43.79 -22.45,-51.92 -10.24,-4.05 -61.39,-24.31 -153.48,-60.79 24.94,-10.68 38.79,-16.62 41.56,-17.81 15.21,-6.52 25.01,-21.42 24.97,-37.99 -0.1,-26.91 -25.61,-46.49 -51.7,-39.66 -67.49,17.67 -106.03,31.02 -131.54,39.85 -39.26,13.59 -41.61,14.41 -68.16,3.89 z m 218.56,15.53 c -6.39,2.73 -57.47,24.63 -63.86,27.36 -3.72,1.6 -6.12,5.28 -6.06,9.33 0.06,4.05 2.55,7.67 6.32,9.16 17.6,6.97 158.42,62.76 176.02,69.73 10.25,4.06 15.29,15.71 11.23,25.96 -4.06,10.25 -15.71,15.29 -25.96,11.23 -10.79,-4.28 -97.06,-38.45 -107.85,-42.72 -5.13,-2.04 -10.94,0.48 -12.98,5.61 -2.03,5.14 0.48,10.95 5.62,12.98 15.98,6.33 142.86,56.59 163.63,64.82 10.25,4.06 15.29,15.7 11.22,25.96 -4.06,10.25 -15.7,15.29 -25.96,11.23 -9.24,-3.66 -154.39,-61.16 -163.63,-64.82 -5.13,-2.03 -10.94,0.48 -12.97,5.61 -2.04,5.14 0.47,10.95 5.61,12.98 12.64,5.01 113.8,45.08 126.44,50.09 10.25,4.06 15.29,15.71 11.23,25.96 -4.06,10.25 -15.71,15.29 -25.96,11.23 -15.59,-6.18 -107.46,-42.57 -126.44,-50.09 -5.14,-2.03 -10.95,0.48 -12.98,5.62 -2.04,5.13 0.48,10.94 5.61,12.98 9.05,3.58 79.72,31.57 89.26,35.35 10.25,4.06 15.29,15.71 11.22,25.96 -4.06,10.25 -15.7,15.29 -25.96,11.23 -17.34,-6.87 -156.1,-61.84 -173.44,-68.71 -35.54,-14.07 -48.45,-29.44 -62.12,-45.71 -13.57,-16.15 -27.6,-32.85 -62.09,-46.51 -2.42,-0.96 -21.75,-8.62 -24.17,-9.58 -5.13,-2.03 -7.65,-7.85 -5.62,-12.98 5.16,-13.01 46.41,-117.14 51.56,-130.16 2.03,-5.12 7.86,-7.64 12.98,-5.61 2.42,0.96 21.76,8.62 24.18,9.57 33.45,13.25 41.82,10.35 82.06,-3.58 25.22,-8.73 63.33,-21.93 130.06,-39.4 13.47,-3.52 26.59,6.57 26.64,20.38 0.02,8.51 -5.02,16.19 -12.84,19.54 z" />
    <path
       inkscape:connector-curvature="0"
       id="iJRUNFp7C"
       d="m 84.68,288.69 c 26.45,15.4 39.16,32.19 50.37,47 7.11,9.41 13.82,18.3 24.62,26.67 4.36,3.39 10.65,2.59 14.03,-1.77 3.39,-4.37 2.59,-10.65 -1.77,-14.03 -8.7,-6.75 -14.1,-13.89 -20.93,-22.93 -11.74,-15.51 -26.34,-34.81 -56.26,-52.23 -4.77,-2.77 -10.9,-1.16 -13.67,3.62 -2.78,4.76 -1.17,10.89 3.61,13.67 z" />
    <path
       inkscape:connector-curvature="0"
       id="b992pkRErN"
       d="M 516.13,542.27 465.59,454.1" />
    <path
       inkscape:connector-curvature="0"
       id="aZx45wIRO"
       d="M 579.03,492.27 517.74,429.9" />
    <path
       inkscape:connector-curvature="0"
       id="axeR6MLJq"
       d="m 629.68,289.3 -86.02,27.95" />
    <path
       inkscape:connector-curvature="0"
       id="m6s4ntiyOp"
       d="M 639.35,389.8 543.66,373.67" />
    <path
       inkscape:connector-curvature="0"
       id="d6SmUFOaaC"
       d="m 579.03,197.26 -66.66,56.12" />
  </defs>
  <g
     transform="translate(-10.152169,-96.972095)"
     id="g76">
    <g
       id="g74">
      <g
         id="g26">
        <use
           height="100%"
           width="100%"
           y="0"
           x="0"
           id="use20"
           fill-opacity="1"
           fill="#000000"
           opacity="1"
           xlink:href="#aO6e76Sq3" />
        <g
           id="g24">
          <use
             height="100%"
             width="100%"
             y="0"
             x="0"
             id="use22"
             stroke-opacity="0"
             stroke-width="1"
             stroke="#000000"
             fill-opacity="0"
             opacity="1"
             xlink:href="#aO6e76Sq3" />
        </g>
      </g>
      <g
         id="g34">
        <use
           height="100%"
           width="100%"
           y="0"
           x="0"
           id="use28"
           fill-opacity="1"
           fill="#000000"
           opacity="1"
           xlink:href="#e3G52042Fs" />
        <g
           id="g32">
          <use
             height="100%"
             width="100%"
             y="0"
             x="0"
             id="use30"
             stroke-opacity="0"
             stroke-width="1"
             stroke="#000000"
             fill-opacity="0"
             opacity="1"
             xlink:href="#e3G52042Fs" />
        </g>
      </g>
      <g
         id="g42">
        <use
           height="100%"
           width="100%"
           y="0"
           x="0"
           id="use36"
           fill-opacity="1"
           fill="#000000"
           opacity="1"
           xlink:href="#iJRUNFp7C" />
        <g
           id="g40">
          <use
             height="100%"
             width="100%"
             y="0"
             x="0"
             id="use38"
             stroke-opacity="0"
             stroke-width="1"
             stroke="#000000"
             fill-opacity="0"
             opacity="1"
             xlink:href="#iJRUNFp7C" />
        </g>
      </g>
      <g
         id="g48">
        <g
           id="g46">
          <use
             height="100%"
             width="100%"
             y="0"
             x="0"
             id="use44"
             stroke-opacity="1"
             stroke-width="11"
             stroke="#000000"
             fill-opacity="0"
             opacity="1"
             xlink:href="#b992pkRErN" />
        </g>
      </g>
      <g
         id="g54">
        <g
           id="g52">
          <use
             height="100%"
             width="100%"
             y="0"
             x="0"
             id="use50"
             stroke-opacity="1"
             stroke-width="11"
             stroke="#000000"
             fill-opacity="0"
             opacity="1"
             xlink:href="#aZx45wIRO" />
        </g>
      </g>
      <g
         id="g60">
        <g
           id="g58">
          <use
             height="100%"
             width="100%"
             y="0"
             x="0"
             id="use56"
             stroke-opacity="1"
             stroke-width="11"
             stroke="#000000"
             fill-opacity="0"
             opacity="1"
             xlink:href="#axeR6MLJq" />
        </g>
      </g>
      <g
         id="g66">
        <g
           id="g64">
          <use
             height="100%"
             width="100%"
             y="0"
             x="0"
             id="use62"
             stroke-opacity="1"
             stroke-width="11"
             stroke="#000000"
             fill-opacity="0"
             opacity="1"
             xlink:href="#m6s4ntiyOp" />
        </g>
      </g>
      <g
         id="g72">
        <g
           id="g70">
          <use
             height="100%"
             width="100%"
             y="0"
             x="0"
             id="use68"
             stroke-opacity="1"
             stroke-width="11"
             stroke="#000000"
             fill-opacity="0"
             opacity="1"
             xlink:href="#d6SmUFOaaC" />
        </g>
      </g>
    </g>
  </g>
</svg>
