<?xml version="1.0" encoding="UTF-8" standalone="no"?>
<svg
   xmlns:dc="http://purl.org/dc/elements/1.1/"
   xmlns:cc="http://creativecommons.org/ns#"
   xmlns:rdf="http://www.w3.org/1999/02/22-rdf-syntax-ns#"
   xmlns:svg="http://www.w3.org/2000/svg"
   xmlns="http://www.w3.org/2000/svg"
   xmlns:xlink="http://www.w3.org/1999/xlink"
   xmlns:sodipodi="http://sodipodi.sourceforge.net/DTD/sodipodi-0.dtd"
   xmlns:inkscape="http://www.inkscape.org/namespaces/inkscape"
   inkscape:version="1.0rc1 (09960d6, 2020-04-09)"
   sodipodi:docname="tu.svg"
   id="svg60"
   height="396.22363"
   width="442.01254"
   viewBox="0 0 442.01254 396.22363"
   preserveAspectRatio="xMidYMid meet"
   version="1.1">
  <metadata
     id="metadata64">
    <rdf:RDF>
      <cc:Work
         rdf:about="">
        <dc:format>image/svg+xml</dc:format>
        <dc:type
           rdf:resource="http://purl.org/dc/dcmitype/StillImage" />
        <dc:title></dc:title>
      </cc:Work>
    </rdf:RDF>
  </metadata>
  <sodipodi:namedview
     inkscape:current-layer="svg60"
     inkscape:window-maximized="0"
     inkscape:window-y="23"
     inkscape:window-x="0"
     inkscape:cy="227.1262"
     inkscape:cx="225.78281"
     inkscape:zoom="0.7984375"
     fit-margin-bottom="0"
     fit-margin-right="0"
     fit-margin-left="0"
     fit-margin-top="0"
     showgrid="false"
     id="namedview62"
     inkscape:window-height="480"
     inkscape:window-width="761"
     inkscape:pageshadow="2"
     inkscape:pageopacity="0"
     guidetolerance="10"
     gridtolerance="10"
     objecttolerance="10"
     borderopacity="1"
     bordercolor="#666666"
     pagecolor="#ffffff" />
  <defs
     id="defs16">
    <path
       inkscape:connector-curvature="0"
       id="atUnpHNGM"
       d="m 175.92,430.02 67.75,-28.38" />
    <path
       inkscape:connector-curvature="0"
       id="d2wHTr4nZ"
       d="M 255.58,474.45 297,425.47" />
    <path
       inkscape:connector-curvature="0"
       id="a3uEnaAXzr"
       d="m 464.28,470.76 -46.29,-54.6" />
    <path
       inkscape:connector-curvature="0"
       id="d29CnrT6rt"
       d="M 377.03,487.96 364.1,426.79" />
    <path
       inkscape:connector-curvature="0"
       id="ciLxvDDO1"
       d="M 534.23,425.48 453.6,394.01" />
    <path
       inkscape:connector-curvature="0"
       id="a7594JY0Ml"
       d="m 393.69,140.68 c -3.73,-9.98 -11.28,-18.1 -21.34,-22.54 -4.28,-1.88 -38.51,-16.94 -42.79,-18.83 -27.62,-12.14 -59.8,-5.28 -80.06,17.08 -3.55,3.91 -21.25,23.45 -53.12,58.63 -55.13,1.21 -85.76,1.88 -91.89,2.02 -5.52,0.12 -9.9,4.69 -9.77,10.21 0.09,4.5 0.88,40.49 0.98,44.99 0.12,5.52 7.66,99.15 13.18,99.03 5.53,-0.12 6.94,-93.95 6.82,-99.47 -0.05,-2.33 -0.31,-13.99 -0.77,-34.99 51.71,-1.13 80.44,-1.76 86.19,-1.89 2.75,-0.06 5.35,-1.25 7.19,-3.28 5.6,-6.18 50.41,-55.63 56.01,-61.82 14.47,-15.97 37.46,-20.87 57.19,-12.2 4.27,1.88 38.5,16.94 42.78,18.82 10.36,4.57 14.63,16.47 10.26,26.37 -4.38,9.98 -39.49,89.8 -43.88,99.77 -18.99,-13.43 -26.61,-38.85 -16.89,-60.95 1.2,-2.75 10.87,-24.72 12.08,-27.47 2.22,-5.05 -0.08,-10.95 -5.13,-13.17 -5.06,-2.23 -10.96,0.07 -13.18,5.12 -1.21,2.75 -10.87,24.72 -12.08,27.46 -4.95,11.26 -6.99,23.83 -5.38,36.73 -22.33,21.6 -51.53,33.82 -82.77,34.5 -5.52,0.12 -9.89,4.7 -9.77,10.22 0.12,5.52 4.69,9.9 10.21,9.78 32.83,-0.72 63.71,-12.4 88.52,-33.17 6.95,14.74 19.03,27.14 35.09,34.21 0.01,0 0.02,0 0.02,0.01 -2.1,5.01 -3.22,10.53 -3.1,16.31 0.2,8.92 3.32,17.11 8.43,23.66 -13.38,6.72 -22.46,20.71 -22.11,36.65 0.14,6.16 1.67,11.96 4.28,17.12 -18.01,-2.36 -34.47,-6.47 -51.51,-10.73 -27.76,-6.94 -56.47,-14.12 -92.95,-13.31 -3.73,0.08 -22.4,0.49 -55.99,1.22 -0.46,-20.99 -0.71,-32.65 -0.77,-34.99 -0.12,-5.52 -6.23,-105.6 -11.75,-105.47 -5.52,0.12 -8.36,100.39 -8.24,105.91 0.1,4.5 0.89,40.49 0.99,44.99 0.12,5.52 4.69,9.9 10.21,9.78 6.6,-0.15 59.39,-1.3 65.99,-1.45 33.79,-0.74 59.96,5.8 87.66,12.73 27.76,6.94 56.47,14.11 92.95,13.31 6,-0.13 53.99,-1.18 59.99,-1.31 22.05,-0.49 39.59,-18.82 39.11,-40.87 -0.2,-8.93 -3.32,-17.12 -8.43,-23.67 13.39,-6.72 22.46,-20.71 22.11,-36.65 -0.2,-8.92 -3.32,-17.11 -8.43,-23.66 13.39,-6.72 22.46,-20.71 22.11,-36.65 -0.26,-11.94 -5.76,-22.55 -14.24,-29.7 8.16,-7.51 13.18,-18.35 12.92,-30.29 -0.48,-22.05 -18.81,-39.59 -40.87,-39.11 0,0 -41.46,0.91 -46.06,1.01 z m 20.46,199.6 c 11.03,-0.24 20.19,8.53 20.44,19.56 0.24,11.02 -8.54,20.19 -19.56,20.43 -6,0.13 -53.99,1.19 -59.99,1.32 -11.02,0.24 -20.19,-8.53 -20.43,-19.56 -0.24,-11.02 8.53,-20.19 19.56,-20.43 11.99,-0.27 47.98,-1.06 59.98,-1.32 z m 13.68,-60.31 c 11.03,-0.25 20.19,8.53 20.43,19.55 0.25,11.03 -8.53,20.19 -19.55,20.44 -6,0.13 -53.99,1.18 -59.99,1.31 -11.02,0.24 -20.19,-8.53 -20.43,-19.55 -0.24,-11.03 8.53,-20.2 19.56,-20.44 11.99,-0.26 47.98,-1.05 59.98,-1.31 z m 13.68,-60.32 c 11.03,-0.24 20.19,8.53 20.43,19.56 0.25,11.02 -8.53,20.19 -19.55,20.43 -7.5,0.17 -67.49,1.48 -74.98,1.65 -5.7,0.12 -11.09,1.45 -15.95,3.71 1.28,-2.92 7.7,-17.52 19.26,-43.8 37.76,-0.82 61.35,-1.34 70.79,-1.55 z m -1.32,-59.98 c 11.03,-0.25 20.2,8.53 20.44,19.55 0.24,11.03 -8.53,20.19 -19.56,20.44 -4.1,0.09 -24.59,0.54 -61.47,1.34 7.96,-18.08 12.37,-28.12 13.26,-30.13 1.44,-3.28 2.43,-6.72 2.95,-10.23 8.88,-0.2 35.51,-0.78 44.38,-0.97 z" />
  </defs>
  <g
     transform="translate(-94.217186,-92.873801)"
     id="g58">
    <g
       id="g56">
      <g
         id="g22">
        <g
           id="g20">
          <use
             height="100%"
             width="100%"
             y="0"
             x="0"
             id="use18"
             stroke-opacity="1"
             stroke-width="11"
             stroke="#000000"
             fill-opacity="0"
             opacity="1"
             xlink:href="#atUnpHNGM" />
        </g>
      </g>
      <g
         id="g28">
        <g
           id="g26">
          <use
             height="100%"
             width="100%"
             y="0"
             x="0"
             id="use24"
             stroke-opacity="1"
             stroke-width="11"
             stroke="#000000"
             fill-opacity="0"
             opacity="1"
             xlink:href="#d2wHTr4nZ" />
        </g>
      </g>
      <g
         id="g34">
        <g
           id="g32">
          <use
             height="100%"
             width="100%"
             y="0"
             x="0"
             id="use30"
             stroke-opacity="1"
             stroke-width="11"
             stroke="#000000"
             fill-opacity="0"
             opacity="1"
             xlink:href="#a3uEnaAXzr" />
        </g>
      </g>
      <g
         id="g40">
        <g
           id="g38">
          <use
             height="100%"
             width="100%"
             y="0"
             x="0"
             id="use36"
             stroke-opacity="1"
             stroke-width="11"
             stroke="#000000"
             fill-opacity="0"
             opacity="1"
             xlink:href="#d29CnrT6rt" />
        </g>
      </g>
      <g
         id="g46">
        <g
           id="g44">
          <use
             height="100%"
             width="100%"
             y="0"
             x="0"
             id="use42"
             stroke-opacity="1"
             stroke-width="11"
             stroke="#000000"
             fill-opacity="0"
             opacity="1"
             xlink:href="#ciLxvDDO1" />
        </g>
      </g>
      <g
         id="g54">
        <use
           height="100%"
           width="100%"
           y="0"
           x="0"
           id="use48"
           fill-opacity="1"
           fill="#000000"
           opacity="1"
           xlink:href="#a7594JY0Ml" />
        <g
           id="g52">
          <use
             height="100%"
             width="100%"
             y="0"
             x="0"
             id="use50"
             stroke-opacity="0"
             stroke-width="1"
             stroke="#000000"
             fill-opacity="0"
             opacity="1"
             xlink:href="#a7594JY0Ml" />
        </g>
      </g>
    </g>
  </g>
</svg>
