<?xml version="1.0" encoding="UTF-8" standalone="no"?>
<!DOCTYPE svg PUBLIC "-//W3C//DTD SVG 1.1//EN" "http://www.w3.org/Graphics/SVG/1.1/DTD/svg11.dtd">
<svg version="1.1" xmlns="http://www.w3.org/2000/svg" xmlns:xlink="http://www.w3.org/1999/xlink" preserveAspectRatio="xMidYMid meet" viewBox="0 0 640 640" width="640" height="640"><defs><path d="M175.92 430.02L243.67 401.64" id="atUnpHNGM"></path><path d="M255.58 474.45L297 425.47" id="d2wHTr4nZ"></path><path d="M464.28 470.76L417.99 416.16" id="a3uEnaAXzr"></path><path d="M377.03 487.96L364.1 426.79" id="d29CnrT6rt"></path><path d="M534.23 425.48L453.6 394.01" id="ciLxvDDO1"></path><path d="M393.69 140.68C389.96 130.7 382.41 122.58 372.35 118.14C368.07 116.26 333.84 101.2 329.56 99.31C301.94 87.17 269.76 94.03 249.5 116.39C245.95 120.3 228.25 139.84 196.38 175.02C141.25 176.23 110.62 176.9 104.49 177.04C98.97 177.16 94.59 181.73 94.72 187.25C94.81 191.75 95.6 227.74 95.7 232.24C95.82 237.76 103.36 331.39 108.88 331.27C114.41 331.15 115.82 237.32 115.7 231.8C115.65 229.47 115.39 217.81 114.93 196.81C166.64 195.68 195.37 195.05 201.12 194.92C203.87 194.86 206.47 193.67 208.31 191.64C213.91 185.46 258.72 136.01 264.32 129.82C278.79 113.85 301.78 108.95 321.51 117.62C325.78 119.5 360.01 134.56 364.29 136.44C374.65 141.01 378.92 152.91 374.55 162.81C370.17 172.79 335.06 252.61 330.67 262.58C311.68 249.15 304.06 223.73 313.78 201.63C314.98 198.88 324.65 176.91 325.86 174.16C328.08 169.11 325.78 163.21 320.73 160.99C315.67 158.76 309.77 161.06 307.55 166.11C306.34 168.86 296.68 190.83 295.47 193.57C290.52 204.83 288.48 217.4 290.09 230.3C267.76 251.9 238.56 264.12 207.32 264.8C201.8 264.92 197.43 269.5 197.55 275.02C197.67 280.54 202.24 284.92 207.76 284.8C240.59 284.08 271.47 272.4 296.28 251.63C303.23 266.37 315.31 278.77 331.37 285.84C331.38 285.84 331.39 285.84 331.39 285.85C329.29 290.86 328.17 296.38 328.29 302.16C328.49 311.08 331.61 319.27 336.72 325.82C323.34 332.54 314.26 346.53 314.61 362.47C314.75 368.63 316.28 374.43 318.89 379.59C300.88 377.23 284.42 373.12 267.38 368.86C239.62 361.92 210.91 354.74 174.43 355.55C170.7 355.63 152.03 356.04 118.44 356.77C117.98 335.78 117.73 324.12 117.67 321.78C117.55 316.26 111.44 216.18 105.92 216.31C100.4 216.43 97.56 316.7 97.68 322.22C97.78 326.72 98.57 362.71 98.67 367.21C98.79 372.73 103.36 377.11 108.88 376.99C115.48 376.84 168.27 375.69 174.87 375.54C208.66 374.8 234.83 381.34 262.53 388.27C290.29 395.21 319 402.38 355.48 401.58C361.48 401.45 409.47 400.4 415.47 400.27C437.52 399.78 455.06 381.45 454.58 359.4C454.38 350.47 451.26 342.28 446.15 335.73C459.54 329.01 468.61 315.02 468.26 299.08C468.06 290.16 464.94 281.97 459.83 275.42C473.22 268.7 482.29 254.71 481.94 238.77C481.68 226.83 476.18 216.22 467.7 209.07C475.86 201.56 480.88 190.72 480.62 178.78C480.14 156.73 461.81 139.19 439.75 139.67C439.75 139.67 398.29 140.58 393.69 140.68ZM414.15 340.28C425.18 340.04 434.34 348.81 434.59 359.84C434.83 370.86 426.05 380.03 415.03 380.27C409.03 380.4 361.04 381.46 355.04 381.59C344.02 381.83 334.85 373.06 334.61 362.03C334.37 351.01 343.14 341.84 354.17 341.6C366.16 341.33 402.15 340.54 414.15 340.28ZM427.83 279.97C438.86 279.72 448.02 288.5 448.26 299.52C448.51 310.55 439.73 319.71 428.71 319.96C422.71 320.09 374.72 321.14 368.72 321.27C357.7 321.51 348.53 312.74 348.29 301.72C348.05 290.69 356.82 281.52 367.85 281.28C379.84 281.02 415.83 280.23 427.83 279.97ZM441.51 219.65C452.54 219.41 461.7 228.18 461.94 239.21C462.19 250.23 453.41 259.4 442.39 259.64C434.89 259.81 374.9 261.12 367.41 261.29C361.71 261.41 356.32 262.74 351.46 265C352.74 262.08 359.16 247.48 370.72 221.2C408.48 220.38 432.07 219.86 441.51 219.65ZM440.19 159.67C451.22 159.42 460.39 168.2 460.63 179.22C460.87 190.25 452.1 199.41 441.07 199.66C436.97 199.75 416.48 200.2 379.6 201C387.56 182.92 391.97 172.88 392.86 170.87C394.3 167.59 395.29 164.15 395.81 160.64C404.69 160.44 431.32 159.86 440.19 159.67Z" id="a7594JY0Ml"></path></defs><g><g><g><g><use xlink:href="#atUnpHNGM" opacity="1" fill-opacity="0" stroke="#000000" stroke-width="11" stroke-opacity="1"></use></g></g><g><g><use xlink:href="#d2wHTr4nZ" opacity="1" fill-opacity="0" stroke="#000000" stroke-width="11" stroke-opacity="1"></use></g></g><g><g><use xlink:href="#a3uEnaAXzr" opacity="1" fill-opacity="0" stroke="#000000" stroke-width="11" stroke-opacity="1"></use></g></g><g><g><use xlink:href="#d29CnrT6rt" opacity="1" fill-opacity="0" stroke="#000000" stroke-width="11" stroke-opacity="1"></use></g></g><g><g><use xlink:href="#ciLxvDDO1" opacity="1" fill-opacity="0" stroke="#000000" stroke-width="11" stroke-opacity="1"></use></g></g><g><use xlink:href="#a7594JY0Ml" opacity="1" fill="#000000" fill-opacity="1"></use><g><use xlink:href="#a7594JY0Ml" opacity="1" fill-opacity="0" stroke="#000000" stroke-width="1" stroke-opacity="0"></use></g></g></g></g></svg>