<?xml version="1.0" standalone="no"?>
<!DOCTYPE svg PUBLIC "-//W3C//DTD SVG 20010904//EN"
 "http://www.w3.org/TR/2001/REC-SVG-20010904/DTD/svg10.dtd">
<svg version="1.0" xmlns="http://www.w3.org/2000/svg"
 width="743.876676pt" height="310.287871pt" viewBox="0 0 743.876676 310.287871"
 preserveAspectRatio="xMidYMid meet">
<metadata>
Created by potrace 1.12, written by Peter Selinger 2001-2015
</metadata>
<g transform="translate(-17.123324,328.000219) scale(0.100000,-0.100000)"
fill="#000000" stroke="none">
<path d="M516 3228 c-4 -29 -11 -129 -16 -223 -24 -439 -21 -407 -44 -400 -57
19 -105 17 -158 -8 -68 -33 -95 -57 -113 -101 -30 -70 -11 -117 54 -137 63
-19 140 3 200 57 58 52 26 50 394 27 l277 -17 0 -30 c0 -49 22 -80 64 -94 75
-24 170 9 238 85 17 18 30 18 600 -19 321 -20 586 -37 591 -38 4 0 7 -14 7
-31 0 -41 15 -66 50 -84 66 -34 162 -10 235 60 l40 38 305 -19 305 -19 6 -42
c3 -23 11 -48 18 -57 32 -38 136 -45 199 -12 15 8 45 31 67 52 l40 37 290 -17
c160 -9 314 -19 343 -22 l52 -6 -6 -34 c-8 -43 7 -44 44 -3 l28 31 122 -7
c131 -8 134 -10 107 -61 -8 -16 -15 -37 -15 -46 0 -20 -26 -24 -33 -5 -2 6 -7
-4 -12 -23 -10 -48 -36 -90 -56 -90 -9 0 -34 -12 -55 -27 -50 -33 -80 -33
-139 1 -45 27 -47 30 -40 62 9 51 -1 55 -41 18 -29 -28 -43 -34 -79 -34 -57 0
-75 -8 -75 -32 0 -15 4 -18 18 -12 9 4 31 8 47 8 25 1 31 -3 33 -24 5 -38 31
-90 46 -90 39 0 66 -85 35 -115 -8 -8 -47 -16 -91 -19 -51 -4 -88 -12 -110
-26 -43 -26 -70 -25 -96 3 -19 20 -20 27 -10 55 7 17 8 35 4 39 -5 4 -11 2
-13 -5 -4 -9 -18 -11 -53 -6 -37 5 -53 3 -64 -9 -21 -20 -20 -24 4 -30 11 -3
23 -13 26 -24 4 -10 13 -25 21 -34 8 -9 13 -23 11 -30 -2 -7 7 -18 19 -23 12
-6 24 -18 26 -28 7 -24 -23 -59 -48 -59 -11 0 -62 2 -112 3 -111 4 -127 15
-128 83 0 25 -4 45 -9 45 -4 0 -6 -36 -5 -79 3 -66 8 -84 27 -104 25 -26 96
-55 202 -82 36 -9 70 -21 75 -27 10 -11 -8 -9 -118 10 -27 5 -58 7 -71 5 -37
-7 -106 -77 -106 -106 0 -14 -8 -30 -17 -36 -10 -5 -14 -13 -10 -17 11 -12 41
10 46 32 4 25 29 53 63 70 36 19 40 18 74 -11 24 -22 35 -25 69 -19 46 7 119
37 260 104 55 26 132 56 170 65 39 9 78 24 87 32 9 8 21 13 25 10 5 -3 28 8
52 24 24 16 50 29 58 29 7 0 13 5 13 10 0 6 4 10 9 10 20 0 116 91 196 185 76
90 80 93 109 88 27 -5 31 3 27 50 -1 9 4 17 12 17 14 0 45 29 46 43 1 4 8 22
16 40 37 76 56 106 75 120 11 7 17 16 14 20 -3 3 10 9 30 12 20 4 36 12 36 17
0 5 -8 8 -17 6 -24 -5 -57 27 -47 44 6 11 5 11 -8 0 -11 -9 -18 -10 -23 -2 -3
5 4 15 17 20 23 11 23 11 1 6 -20 -3 -22 -1 -17 19 4 17 0 26 -14 34 -31 17
-42 13 -53 -15 l-10 -27 -22 20 c-74 66 -169 104 -337 132 -63 11 -141 29
-172 41 -32 11 -67 20 -78 20 -11 0 -20 5 -20 11 0 5 -8 9 -17 7 -18 -2 -96
46 -140 87 -13 11 -40 29 -60 40 -75 38 -97 68 -113 150 -7 31 -5 44 8 59 9
11 11 16 5 12 -9 -5 -13 -1 -13 11 -1 41 -28 -19 -35 -76 -12 -102 43 -179
198 -279 120 -78 270 -131 371 -132 l50 0 -29 -30 c-15 -16 -44 -35 -64 -41
-20 -6 -51 -23 -70 -37 l-35 -26 -350 22 c-192 13 -352 24 -354 27 -5 5 37
658 43 663 2 3 118 -3 257 -12 139 -9 435 -27 658 -41 223 -14 438 -28 479
-31 l74 -7 -7 -75 c-3 -42 -10 -80 -15 -85 -12 -12 -272 45 -389 85 -178 61
-199 65 -462 88 -152 13 -143 14 -123 -10 13 -15 30 -20 65 -20 26 0 50 -4 53
-10 3 -5 20 -10 36 -10 17 0 44 -7 61 -16 17 -9 38 -14 48 -11 9 2 39 0 66 -5
52 -10 92 -16 111 -17 6 -1 18 -7 25 -14 16 -16 121 -42 141 -34 8 3 23 0 33
-8 11 -7 37 -15 59 -18 88 -13 115 -20 121 -28 3 -5 29 -9 59 -9 30 0 57 -5
60 -11 4 -6 19 -7 37 -4 40 9 135 -3 151 -19 25 -25 82 -50 133 -57 28 -4 75
-18 105 -32 32 -16 74 -27 104 -28 28 -1 66 -5 85 -10 19 -4 74 -15 122 -24
87 -17 154 -47 143 -65 -5 -8 54 -60 70 -60 4 0 27 -16 51 -35 23 -19 46 -35
52 -35 5 0 24 -15 43 -34 40 -40 79 -55 79 -32 0 10 -6 13 -16 9 -15 -5 -15
-3 0 25 12 24 20 29 38 24 13 -3 30 -13 38 -22 20 -23 100 -40 180 -39 36 0
91 -2 123 -6 36 -5 57 -4 57 2 0 13 154 27 174 16 8 -4 14 -12 13 -18 -4 -18
46 -18 60 1 12 17 14 17 29 -2 8 -10 12 -13 8 -5 -5 9 -3 12 4 7 7 -4 12 -16
12 -26 0 -12 5 -17 14 -14 10 4 13 -2 10 -23 -2 -15 -1 -20 2 -10 3 9 10 17
15 17 6 0 7 5 4 10 -3 6 1 10 9 10 8 0 18 -4 21 -10 8 -13 55 -13 55 0 0 5 6
7 14 4 8 -3 12 -12 9 -20 -6 -16 2 -17 32 -4 16 7 16 9 4 9 -9 1 -19 7 -22 15
-3 8 1 13 11 12 24 -2 43 -22 36 -39 -8 -23 14 -30 25 -9 6 11 9 21 7 23 -2 2
3 11 12 19 14 13 15 12 9 -3 -3 -9 -2 -19 2 -22 12 -7 20 -55 9 -55 -5 0 -7
-4 -3 -9 3 -6 -2 -14 -12 -19 -14 -9 -15 -13 -4 -26 11 -13 11 -16 -2 -16 -8
0 -17 -9 -20 -20 -3 -11 -2 -20 1 -20 12 1 39 25 45 40 4 10 6 8 6 -7 1 -15
-5 -23 -16 -23 -9 0 -14 -3 -10 -6 3 -4 -1 -14 -10 -22 -12 -12 -12 -17 -3
-20 7 -3 16 2 21 9 6 10 9 8 9 -9 0 -12 -6 -25 -14 -28 -15 -6 -17 -76 -1 -70
6 2 9 15 8 30 -1 14 2 26 8 26 5 0 9 9 9 20 0 13 5 18 15 14 12 -5 13 -10 4
-20 -6 -7 -8 -18 -5 -23 4 -5 2 -12 -4 -16 -6 -3 -8 -17 -6 -31 4 -19 0 -24
-15 -24 -10 0 -19 -4 -19 -10 0 -5 5 -10 10 -10 6 0 10 -5 10 -11 0 -7 -10 -9
-25 -7 -14 3 -25 1 -25 -3 0 -5 9 -9 20 -9 11 0 20 -7 20 -16 0 -8 4 -12 10
-9 6 3 10 1 10 -5 0 -8 -11 -9 -32 -5 -21 4 -28 3 -20 -3 11 -7 10 -12 -3 -25
-12 -13 -14 -21 -5 -37 6 -11 17 -20 25 -20 8 0 15 -4 15 -9 0 -5 9 -7 19 -4
11 3 28 0 38 -6 10 -6 13 -11 6 -11 -6 0 -9 -9 -6 -20 3 -13 0 -20 -8 -20 -11
0 -11 -2 1 -10 9 -6 18 -6 24 0 6 6 15 10 20 10 7 0 8 -3 1 -8 -11 -8 -35 -48
-35 -58 0 -3 7 -4 14 -1 10 4 13 1 9 -9 -3 -7 -11 -14 -18 -14 -8 0 -12 -8
-10 -20 3 -15 -2 -20 -19 -20 -12 0 -23 -6 -23 -14 0 -8 8 -11 19 -8 24 6 23
-14 -3 -36 -11 -9 -25 -27 -30 -39 -9 -23 -29 -32 -29 -13 0 6 -5 10 -12 10
-9 0 -9 -3 -1 -11 17 -17 -5 -35 -58 -49 -24 -6 -76 -21 -116 -32 l-71 -21
-36 21 c-22 13 -36 17 -38 10 -5 -13 -58 -18 -58 -6 0 4 6 8 14 8 8 0 18 4 21
10 3 6 -1 7 -9 4 -9 -3 -23 1 -31 10 -23 23 -34 20 -29 -8 3 -18 -1 -26 -16
-31 -11 -3 -20 -11 -20 -17 0 -5 -7 -8 -15 -5 -8 4 -17 2 -20 -4 -4 -5 -11 -6
-17 -3 -6 4 -8 3 -5 -2 3 -5 -3 -21 -14 -34 -12 -16 -19 -20 -19 -10 0 9 -5 7
-16 -8 -9 -13 -13 -29 -10 -37 4 -12 -5 -14 -44 -12 -27 2 -53 7 -57 12 -5 4
-3 5 4 1 6 -3 22 -2 35 3 13 5 32 12 42 16 15 4 17 8 8 17 -19 19 -14 28 17
28 21 0 32 6 36 20 3 11 13 20 21 20 8 0 12 4 9 10 -3 6 1 7 10 4 11 -5 14 -2
8 12 -4 12 -3 15 5 10 7 -4 12 -2 12 3 0 6 8 11 17 11 9 0 13 3 10 7 -4 3 0
15 10 25 9 10 12 18 8 18 -5 0 0 7 11 15 10 8 31 15 45 15 25 0 76 29 52 30
-6 0 -15 -4 -18 -10 -3 -5 -12 -10 -18 -9 -7 0 -2 7 11 16 12 8 22 20 22 25 0
5 -10 13 -22 18 -19 7 -20 9 -4 9 10 1 32 -14 48 -31 16 -18 28 -26 25 -18 -2
8 5 23 15 32 13 11 18 24 13 37 -4 13 -2 21 5 21 17 0 8 53 -10 63 -9 4 -5 6
13 4 18 -3 27 0 27 9 0 8 -5 14 -11 14 -5 0 -7 5 -3 11 4 7 2 10 -5 8 -7 -3
-11 -8 -9 -11 2 -4 -6 -14 -17 -22 -20 -15 -20 -15 -1 -29 19 -14 18 -15 -12
-22 -18 -3 -32 -11 -32 -17 0 -6 -8 -7 -17 -4 -9 4 -19 2 -23 -4 -3 -5 -19
-11 -34 -12 -16 -2 -42 -15 -58 -30 -17 -16 -35 -28 -40 -28 -6 0 0 9 13 21
13 11 17 17 9 13 -8 -4 -25 -16 -38 -27 -17 -16 -19 -23 -10 -29 9 -5 8 -8 -4
-8 -10 0 -18 -4 -18 -10 0 -5 -9 -10 -20 -10 -13 0 -18 -5 -14 -15 7 -17 -7
-20 -23 -4 -5 5 -22 7 -37 3 -20 -5 -25 -9 -16 -18 8 -8 14 -7 21 4 9 13 10
13 6 0 -5 -19 -47 -26 -57 -10 -5 8 -12 7 -24 -5 -21 -21 -46 -12 -46 16 0 18
-2 19 -15 9 -8 -7 -12 -16 -9 -21 3 -5 1 -9 -5 -9 -5 0 -11 -8 -13 -17 -3 -15
-6 -15 -24 5 -12 13 -34 25 -50 27 -16 1 -28 8 -27 14 2 6 -2 11 -8 11 -7 0
-9 -10 -6 -26 3 -17 1 -24 -8 -20 -7 2 -23 -6 -35 -19 -18 -19 -26 -22 -40
-13 -10 7 -16 17 -13 23 2 7 -3 15 -13 19 -13 5 -14 9 -4 21 10 12 10 15 -3
15 -19 0 -26 -19 -17 -45 10 -26 2 -45 -19 -45 -14 0 -14 -2 -1 -10 12 -8 11
-10 -7 -10 -12 0 -24 -4 -27 -9 -4 -5 -29 -12 -58 -16 -28 -4 -71 -18 -96 -31
-24 -13 -54 -25 -66 -27 -11 -2 -28 -7 -36 -10 -8 -3 -40 -14 -70 -23 -30 -10
-57 -20 -60 -23 -7 -9 -102 -41 -120 -41 -8 0 -28 -7 -43 -15 -16 -8 -47 -19
-70 -25 -23 -6 -51 -15 -62 -20 -22 -9 -82 -29 -198 -65 -42 -13 -82 -27 -88
-30 -5 -4 -20 -9 -32 -11 -28 -4 -95 -20 -126 -30 -17 -5 -22 -4 -17 5 8 12
-30 10 -88 -4 -24 -7 -26 -9 -12 -17 26 -14 19 -23 -31 -40 -43 -15 -246 -36
-283 -30 -8 2 -19 3 -25 2 -5 0 -29 -1 -52 -3 -22 -1 -39 1 -36 6 10 17 -21 5
-39 -15 -11 -13 -16 -17 -13 -10 5 9 1 13 -11 11 -11 -2 -24 0 -30 3 -6 4 -28
2 -50 -4 -38 -11 -38 -12 -12 -17 l28 -6 -25 -12 c-14 -6 -23 -7 -19 -2 3 5
-6 9 -20 9 -14 0 -26 -5 -26 -11 0 -7 -10 -9 -24 -5 -17 4 -29 1 -38 -11 -8
-11 -30 -19 -53 -21 -22 -2 -45 -9 -50 -17 -8 -10 -16 -10 -30 -2 -14 7 -20 7
-23 -1 -2 -7 -21 -12 -43 -12 -26 0 -46 -7 -59 -20 -25 -25 -66 -26 -79 -2
-14 23 -14 6 0 -20 8 -16 8 -19 -1 -13 -7 4 -29 9 -49 10 -46 3 -123 23 -136
36 -5 5 -21 9 -36 9 -15 0 -31 5 -34 11 -4 6 -14 8 -22 5 -23 -9 -63 4 -63 21
0 10 10 14 33 12 17 -1 43 -1 57 0 20 1 22 3 10 11 -13 8 -13 10 2 10 9 0 23
-7 32 -15 8 -8 26 -16 40 -17 14 -1 26 -6 26 -10 0 -11 47 -10 54 1 3 4 29 11
59 14 65 6 150 40 248 98 41 24 92 50 114 57 22 8 47 19 55 26 28 23 95 45
155 52 52 6 65 12 99 45 21 22 44 39 50 39 7 0 30 8 52 19 21 10 72 26 112 36
41 10 69 21 63 25 -7 4 -3 11 12 17 13 6 30 7 37 3 7 -4 20 -6 28 -2 13 4 12
7 -4 12 -16 6 -11 11 29 29 47 21 64 38 28 26 -11 -3 -22 -1 -26 5 -4 6 4 10
19 10 18 0 24 4 20 15 -4 10 0 15 12 15 18 1 18 1 2 11 -12 7 -24 6 -39 -2
-12 -6 -19 -7 -15 -1 19 31 -128 15 -154 -16 -15 -19 -42 -33 -70 -37 -43 -5
-96 -18 -105 -25 -5 -4 -28 -11 -50 -15 -22 -4 -44 -10 -50 -13 -11 -7 -30
-12 -62 -15 -11 -1 -19 -5 -16 -10 2 -4 -4 -10 -14 -13 -10 -3 -29 -11 -43
-17 -14 -6 -29 -10 -33 -9 -4 1 -14 -4 -22 -12 -8 -7 -31 -17 -52 -21 -20 -4
-43 -15 -51 -26 -9 -14 -20 -17 -42 -12 -21 4 -31 1 -35 -10 -4 -9 -14 -13
-26 -10 -10 3 -25 1 -32 -5 -24 -19 -83 -23 -97 -7 -16 19 -30 19 -30 0 0 -8
-9 -15 -19 -15 -11 0 -23 -4 -26 -10 -3 -5 -14 -10 -25 -10 -20 0 -35 -27 -19
-32 6 -2 -1 -10 -16 -18 -16 -9 -29 -10 -33 -5 -9 13 -62 16 -62 4 0 -5 -10
-9 -22 -8 -29 0 -141 -9 -148 -12 -3 -1 -57 -4 -120 -5 -226 -6 -257 -4 -270
15 -10 17 -68 21 -108 8 -29 -10 -35 -9 -58 14 -31 31 -44 100 -23 126 12 14
12 16 -1 11 -27 -9 -43 -70 -31 -116 16 -57 59 -82 139 -82 33 0 62 -3 65 -7
2 -5 2 -2 1 5 -5 18 32 15 52 -5 9 -10 31 -23 48 -30 l31 -12 -40 5 c-22 3
-49 8 -60 10 -11 2 -4 -3 15 -12 19 -9 52 -31 72 -50 44 -40 116 -77 178 -94
25 -6 72 -22 106 -35 33 -13 98 -36 145 -51 46 -14 118 -42 159 -61 41 -19
125 -48 187 -65 l112 -31 -2 -39 c-2 -60 33 -89 120 -98 37 -4 97 -20 132 -35
40 -17 88 -29 125 -31 34 -1 127 -6 208 -10 l146 -7 64 31 c35 16 90 38 123
47 32 10 123 48 202 86 78 37 168 75 200 84 32 9 86 32 121 51 35 19 68 32 73
28 30 -18 379 52 516 105 96 37 189 111 253 200 53 74 74 101 65 84 -10 -20 4
-15 33 12 29 27 42 31 42 14 0 -13 -58 -86 -108 -136 -37 -37 -25 -43 29 -14
36 20 56 24 97 22 34 -2 19 -17 -33 -31 -79 -22 -62 -31 47 -26 107 5 215 24
428 77 155 37 275 66 318 74 l32 7 0 122 c0 84 -4 126 -12 135 -11 11 -10 12
0 6 10 -5 13 -1 10 16 -2 20 -8 23 -33 21 -16 -2 -37 -9 -45 -16 -18 -14 -99
-35 -153 -39 -32 -2 -35 -4 -21 -14 15 -11 14 -13 -9 -18 -13 -4 -42 -2 -63 4
-59 16 -63 13 -19 -14 22 -13 35 -25 28 -25 -6 0 -14 4 -17 9 -4 5 -26 16 -51
24 -43 15 -45 15 -59 -5 -8 -11 -19 -17 -26 -13 -6 4 -33 1 -60 -5 -68 -16
-87 -6 -24 13 28 8 60 20 70 25 36 18 69 30 134 47 35 10 80 26 99 36 20 10
45 19 56 19 12 0 25 4 31 10 5 5 23 11 39 13 33 4 57 12 95 30 l25 13 2 358
c2 356 2 358 -17 341 -20 -18 -25 -11 -14 19 3 9 12 16 20 16 11 0 14 33 14
178 0 98 -2 181 -5 184 -3 3 -58 -12 -123 -34 -224 -76 -640 -136 -783 -114
-39 6 -49 13 -87 66 -24 33 -50 60 -58 60 -13 0 -13 -3 0 -22 26 -36 20 -48
-23 -48 -57 0 -85 28 -120 120 -17 44 -31 88 -31 100 0 11 -4 20 -10 20 -5 0
-10 10 -10 23 0 13 -24 59 -52 103 -54 81 -98 114 -171 129 -18 4 -59 36 -108
85 -44 44 -87 80 -97 80 -13 -1 -10 -7 14 -28 19 -16 38 -48 48 -78 18 -55 34
-73 111 -124 56 -37 165 -143 165 -159 0 -6 -5 -11 -12 -11 -9 0 -9 -3 0 -12
19 -19 14 -37 -12 -44 -31 -7 -131 18 -201 52 -36 17 -65 24 -83 20 -15 -3
-43 -2 -62 2 -29 6 -40 17 -67 65 -18 32 -42 92 -54 134 -11 42 -26 84 -31 93
-9 13 -3 24 27 53 21 20 42 37 47 37 4 0 8 5 8 10 0 18 -60 10 -81 -11 -39
-39 -52 -87 -44 -164 4 -38 10 -74 14 -80 5 -5 11 -26 14 -45 3 -19 8 -43 12
-52 10 -26 -20 -23 -114 12 -45 16 -111 35 -147 42 l-65 12 3 150 3 151 -759
48 c-417 26 -761 46 -763 43 -3 -3 -14 -152 -25 -333 -11 -180 -21 -333 -23
-340 -3 -9 -12 -8 -35 4 -57 28 -178 -12 -233 -76 l-25 -31 -308 21 c-170 11
-310 21 -311 23 -3 3 4 124 38 619 6 92 10 170 7 172 -4 4 -2367 155 -2430
155 l-37 0 -5 -52z m523 -103 c218 -14 399 -29 402 -33 7 -8 -25 -540 -34
-548 -3 -3 -14 -1 -25 5 -56 30 -155 1 -224 -65 l-40 -38 -307 19 c-168 10
-307 18 -308 19 -1 1 4 96 12 211 8 116 15 225 15 243 l0 34 149 -7 148 -7 7
52 c4 29 4 55 1 59 -4 3 -70 11 -148 16 l-142 10 -3 28 c-3 26 -2 27 49 27 29
0 231 -11 448 -25z m1909 -154 l3 -33 -48 6 c-26 3 -93 8 -149 12 l-101 6 -6
-58 c-3 -32 -5 -59 -4 -60 1 -2 67 -7 146 -13 78 -5 145 -12 148 -14 5 -5 -17
-369 -23 -376 -2 -2 -9 1 -16 7 -48 39 -175 8 -240 -59 l-37 -39 -588 38 -588
37 1 25 c10 215 39 636 45 640 4 3 333 -15 731 -40 l723 -45 3 -34z m2024
-657 c26 -17 41 -35 49 -64 7 -22 10 -42 8 -45 -4 -3 -252 12 -399 25 -3 0 2
5 10 10 8 5 35 10 60 10 47 0 79 16 140 68 41 35 72 34 132 -4z m2192 -113 c3
-5 -5 -8 -19 -8 -14 0 -22 3 -19 8 3 5 11 9 19 9 8 0 16 -4 19 -9z m-2154 -31
c0 -5 -4 -10 -10 -10 -5 0 -10 -4 -10 -9 0 -19 -63 -111 -76 -111 -18 0 -27
19 -16 33 7 8 6 25 -4 52 -7 22 -14 43 -14 48 0 4 29 7 65 7 37 0 65 -4 65
-10z m70 -119 c0 -18 -45 -71 -60 -71 -14 0 -13 8 11 56 20 43 49 52 49 15z
m2512 -159 c-2 -20 -7 -41 -12 -46 -5 -5 -6 -15 -3 -22 3 -9 0 -12 -9 -9 -16
6 -20 35 -6 35 5 0 5 7 0 16 -6 11 -4 27 5 46 19 36 28 29 25 -20z m-86 -208
c-30 -21 -45 -16 -16 6 14 10 27 16 30 13 3 -2 -4 -11 -14 -19z m-1269 -591
c2 -6 -10 -13 -27 -16 -19 -4 -30 -13 -30 -23 0 -11 -5 -14 -16 -10 -12 5 -14
1 -9 -15 5 -15 2 -22 -13 -26 -11 -2 -22 -13 -25 -23 -3 -11 -16 -20 -33 -22
-21 -2 -29 -8 -27 -21 0 -11 -6 -28 -15 -38 -18 -21 -100 -48 -142 -47 -14 0
-38 -6 -55 -12 -16 -7 -37 -14 -45 -15 -33 -4 -89 -29 -83 -38 3 -5 -7 -6 -25
-2 -18 3 -33 2 -37 -4 -3 -6 -14 -11 -23 -11 -10 0 -36 -9 -57 -20 -22 -11
-57 -23 -78 -27 -20 -3 -40 -10 -43 -15 -4 -6 -10 -5 -15 3 -6 10 -9 11 -9 2
0 -7 -7 -13 -15 -13 -8 0 -15 -7 -15 -15 0 -9 9 -15 23 -15 21 0 21 -1 -6 -18
-15 -10 -25 -21 -21 -24 7 -8 -40 -18 -88 -20 -21 -1 -38 -5 -38 -10 0 -9 -55
-2 -74 10 -8 5 23 22 49 27 29 5 75 31 75 42 0 7 6 13 13 13 8 0 8 3 2 8 -20
14 -8 51 29 86 20 20 43 36 51 36 8 0 15 4 15 8 0 13 159 77 280 113 25 7 48
17 51 22 4 5 18 10 33 10 14 1 26 5 26 10 0 4 16 7 35 7 19 0 35 5 35 10 0 6
6 10 13 9 12 -2 43 9 104 38 18 9 51 16 73 16 22 0 43 4 46 8 3 5 16 9 30 9
14 0 32 7 41 15 16 17 34 16 40 -2z m698 -51 c-12 -10 -114 -39 -166 -47 -22
-3 -47 -18 -69 -40 -39 -40 -56 -45 -39 -12 7 12 15 29 19 37 9 18 101 48 155
50 22 1 49 5 60 10 26 11 52 12 40 2z m-335 -167 c0 -2 -30 -24 -67 -48 -90
-58 -93 -59 -93 -53 0 4 150 105 158 106 1 0 2 -2 2 -5z m-243 -151 c-21 -14
-43 -24 -49 -22 -6 2 6 14 28 25 54 30 66 28 21 -3z m-132 -64 c-3 -5 -32 -17
-63 -26 -31 -9 -97 -36 -146 -61 -48 -24 -90 -42 -93 -40 -6 7 93 59 158 84
152 58 154 59 144 43z m-1331 -106 c-13 -7 -41 -11 -61 -8 -35 4 -36 4 -13 -7
23 -11 23 -12 5 -16 -11 -2 -35 -11 -53 -20 -46 -21 -78 -11 -77 23 0 23 6 29
45 40 46 14 90 15 90 3 0 -4 9 -9 20 -12 15 -4 20 0 20 13 0 16 3 17 24 7 l23
-11 -23 -12z m256 -193 c-1 -20 -22 -34 -52 -34 -18 1 -27 -1 -20 -4 6 -3 12
-9 12 -15 0 -6 -7 -8 -15 -4 -8 3 -15 1 -15 -3 0 -5 -16 -9 -35 -8 -27 1 -34
5 -32 19 4 22 13 31 35 33 9 1 24 5 32 8 38 14 90 19 90 8z"/>
<path d="M4238 2894 c-15 -15 -8 -35 10 -30 9 3 39 7 65 7 27 1 44 6 39 11
-12 12 -105 22 -114 12z"/>
<path d="M4853 2577 c-13 -5 -23 -13 -23 -18 0 -10 39 1 46 13 9 15 1 16 -23
5z"/>
<path d="M6034 2235 c-17 -13 -17 -14 -2 -15 9 0 20 5 23 11 11 17 0 20 -21 4z"/>
<path d="M6110 2219 c12 -9 11 -10 -7 -6 -12 3 -27 -1 -34 -9 -9 -11 -7 -14
13 -14 21 0 25 -4 20 -25 -2 -15 0 -25 7 -25 6 0 11 8 12 18 0 10 3 12 6 5 2
-7 10 -13 16 -13 7 0 18 -9 25 -20 7 -11 21 -20 31 -20 10 0 25 -8 32 -17 12
-15 12 -16 -3 -10 -10 3 -20 2 -23 -3 -4 -6 5 -10 19 -10 14 0 26 -4 26 -8 0
-5 13 -9 30 -10 36 -1 53 -10 44 -24 -4 -7 -2 -8 5 -4 17 11 63 -2 56 -15 -4
-6 3 -7 19 -3 20 5 26 2 26 -10 0 -22 17 -20 29 2 7 14 6 25 -4 39 -8 11 -12
23 -9 26 3 3 -4 8 -15 12 -12 4 -21 15 -21 26 0 11 -4 17 -10 14 -5 -3 -10 1
-10 10 0 13 -4 14 -21 5 -11 -7 -23 -9 -27 -6 -3 3 0 6 6 6 7 0 12 5 12 11 0
6 -7 8 -16 5 -11 -4 -22 1 -30 12 -9 13 -21 18 -39 15 -28 -6 -34 11 -9 25 11
6 -3 8 -40 7 -30 -1 -53 1 -51 6 3 4 1 10 -5 14 -5 3 -10 1 -10 -4 0 -6 -7
-11 -15 -11 -8 0 -15 5 -15 10 0 6 -8 10 -17 10 -16 0 -16 -2 -3 -11z"/>
<path d="M7053 2196 c-4 -7 -15 -16 -23 -19 -8 -3 -2 -6 14 -6 16 -1 26 2 23
6 -4 3 -2 12 4 20 8 9 8 13 1 13 -6 0 -15 -6 -19 -14z"/>
<path d="M5915 2160 c19 -8 19 -9 -2 -9 -13 -1 -24 0 -25 1 -2 1 -13 -4 -25
-11 -33 -17 -29 -34 6 -29 17 2 28 1 25 -4 -3 -4 -14 -8 -24 -8 -10 0 -22 -4
-25 -10 -4 -6 6 -10 24 -10 16 0 33 5 36 10 3 6 10 10 15 10 14 0 5 -32 -13
-45 -9 -7 -14 -15 -10 -18 3 -4 -3 -7 -15 -7 -11 0 -24 -5 -28 -11 -5 -8 1
-10 20 -7 14 3 26 1 26 -3 0 -5 15 -6 33 -4 30 5 30 4 -10 -14 -24 -11 -43
-25 -43 -31 0 -7 6 -10 13 -7 6 2 22 0 34 -4 12 -5 25 -5 27 0 6 9 104 6 113
-3 9 -9 43 -7 43 2 0 12 44 10 52 -2 5 -7 8 -4 8 7 0 9 -4 17 -10 17 -5 0 -10
5 -10 10 0 6 8 10 17 10 26 0 8 11 -23 14 -16 1 -28 8 -26 14 3 15 -10 16 -26
2 -6 -6 -10 -7 -7 -4 2 4 -2 19 -10 34 -11 22 -12 30 -2 33 6 3 2 4 -10 4 -13
-1 -23 -4 -23 -8 0 -9 -77 -5 -87 5 -4 4 -1 11 7 16 13 8 13 10 -1 10 -22 0
-44 26 -29 35 18 11 11 25 -12 24 -22 0 -22 -1 -3 -9z m35 -119 c0 -5 -7 -11
-15 -15 -15 -5 -20 5 -8 17 9 10 23 9 23 -2z"/>
<path d="M6953 2155 c-21 -24 -14 -40 7 -17 11 12 20 24 20 27 0 10 -15 4 -27
-10z"/>
<path d="M5980 2100 c0 -5 7 -10 15 -10 8 0 15 5 15 10 0 6 -7 10 -15 10 -8 0
-15 -4 -15 -10z"/>
<path d="M7455 2080 c-3 -5 3 -10 14 -10 12 0 21 5 21 10 0 6 -6 10 -14 10 -8
0 -18 -4 -21 -10z"/>
<path d="M5838 2057 c-10 -8 -13 -18 -9 -26 7 -10 12 -10 30 0 23 15 29 39 9
39 -7 0 -21 -6 -30 -13z"/>
<path d="M5815 1996 c-10 -8 -12 -16 -5 -26 8 -13 10 -12 10 4 0 14 6 17 24
14 14 -3 30 -2 36 2 7 4 -1 9 -19 12 -18 3 -38 0 -46 -6z"/>
<path d="M6197 1976 c-3 -8 1 -17 10 -20 20 -8 25 -3 17 18 -8 20 -20 21 -27
2z"/>
<path d="M7417 1910 c-12 -19 -14 -30 -6 -30 6 0 8 -7 5 -16 -3 -8 -2 -12 4
-9 6 3 10 13 10 21 0 8 5 14 10 14 6 0 10 -4 10 -10 0 -5 4 -10 9 -10 10 0 9
12 -3 48 -10 29 -18 28 -39 -8z"/>
<path d="M5875 1880 c-16 -11 -25 -20 -19 -20 11 0 64 39 54 40 -3 0 -18 -9
-35 -20z"/>
<path d="M7382 1798 c6 -16 36 -34 44 -26 3 4 3 15 0 25 -6 15 -8 15 -16 3 -7
-10 -10 -11 -10 -2 0 6 -5 12 -11 12 -6 0 -9 -5 -7 -12z"/>
<path d="M7375 1762 c-3 -8 -1 -20 5 -26 7 -7 10 -6 10 3 0 7 8 11 18 9 9 -2
17 -10 17 -17 0 -8 6 -16 13 -18 7 -3 12 5 12 22 0 14 -4 24 -8 21 -5 -3 -20
1 -35 9 -22 11 -26 11 -32 -3z"/>
<path d="M7392 1691 c-9 -5 -2 -8 20 -9 23 -1 28 2 18 8 -18 12 -22 12 -38 1z"/>
<path d="M7490 1603 c0 -6 -8 -14 -17 -16 -17 -4 -17 -5 0 -6 11 -1 16 -6 11
-13 -4 -7 1 -5 12 4 14 14 16 21 6 30 -8 8 -12 9 -12 1z"/>
<path d="M7453 1555 c0 -8 6 -15 13 -15 8 0 11 6 8 15 -4 8 -9 15 -13 15 -4 0
-8 -7 -8 -15z"/>
<path d="M7115 1533 c2 -10 4 -22 4 -27 1 -5 7 -4 14 2 6 5 21 12 32 15 19 4
18 5 -2 6 -12 0 -25 6 -28 11 -10 16 -23 11 -20 -7z"/>
<path d="M6276 1352 c-3 -6 -16 -8 -28 -4 -12 3 -19 1 -15 -4 3 -6 -8 -9 -26
-7 -39 3 -79 -5 -73 -15 5 -9 5 -9 -124 -16 -52 -3 -106 -9 -120 -12 -14 -4
-33 -8 -42 -9 -10 -1 -21 -4 -24 -7 -3 -4 -17 0 -31 7 -22 12 -29 11 -48 -1
-12 -8 -24 -12 -26 -10 -2 3 -37 7 -77 11 -59 4 -74 3 -78 -10 -4 -8 -14 -15
-24 -15 -10 0 -32 -11 -48 -25 -17 -14 -33 -25 -38 -25 -4 0 -17 -8 -28 -19
-41 -36 -160 -86 -179 -74 -6 3 -7 1 -3 -5 5 -8 -1 -12 -16 -12 -19 0 -20 -2
-8 -11 12 -8 10 -9 -8 -4 -17 5 -29 1 -43 -14 -20 -22 -27 -43 -7 -23 14 14
42 16 33 2 -3 -5 -1 -10 5 -10 6 0 8 -5 4 -12 -5 -8 -2 -9 9 -5 11 4 17 1 17
-9 0 -8 8 -18 18 -21 9 -4 22 -13 28 -21 8 -12 12 -11 23 2 8 9 24 16 37 16
12 0 26 5 30 11 3 6 15 8 26 6 16 -5 17 -3 7 10 -11 12 -10 14 2 13 27 -4 49
0 49 10 0 14 83 89 98 90 8 0 26 8 40 18 77 50 110 66 133 63 9 -1 21 5 28 13
9 11 19 12 48 3 28 -9 37 -9 41 1 4 14 58 16 67 2 3 -5 11 -10 16 -10 6 0 8 4
4 9 -8 13 96 33 182 35 50 1 76 5 82 15 7 11 9 11 13 0 4 -12 7 -12 21 -1 9 8
36 14 60 15 34 2 46 7 54 24 9 17 7 22 -8 26 -11 3 -19 0 -19 -6 0 -7 -7 -4
-14 6 -8 10 -17 14 -20 9z"/>
<path d="M7485 1180 c3 -5 13 -10 21 -10 8 0 14 5 14 10 0 6 -9 10 -21 10 -11
0 -17 -4 -14 -10z"/>
<path d="M7410 1160 c0 -12 8 -12 35 0 18 8 17 9 -7 9 -16 1 -28 -3 -28 -9z"/>
<path d="M3435 1134 c-27 -7 -69 -18 -92 -23 -47 -12 -120 -47 -129 -63 -7
-11 38 0 46 12 3 4 30 15 60 25 30 10 62 20 70 23 8 3 17 6 20 7 3 1 38 5 78
9 39 4 72 12 72 17 0 13 -66 9 -125 -7z"/>
</g>
</svg>
