<?xml version="1.0"?>
<svg xmlns="http://www.w3.org/2000/svg" id="Layer_1" data-name="Layer 1" viewBox="0 0 512 512" width="512" height="512"><path d="M356.638,81.488a6,6,0,0,0,8.053-2.674l31-61.829a6,6,0,0,0-10.728-5.379l-31,61.829A6,6,0,0,0,356.638,81.488Z"/><path d="M370.323,98.362a6,6,0,0,0,8.234,2.053l65.711-39.484a6,6,0,0,0-6.181-10.285L372.376,90.13A6,6,0,0,0,370.323,98.362Z"/><path d="M453.013,110.494h-.064l-67.3.7a6,6,0,0,0,.06,12h.064l67.295-.7a6,6,0,0,0-.06-12Z"/><path d="M400.905,168.254a23.016,23.016,0,0,0-16.8,3.24,24.459,24.459,0,0,0-37.929-18.5l-28.447,18.915,15.3-24.123a22.236,22.236,0,0,0-15.565-34.078l11.644-16.5A23.2,23.2,0,0,0,292.063,69.3a24.451,24.451,0,0,0-41.846-5.475L179.883,154.51a23.665,23.665,0,0,0-3.056-1.553,18.48,18.48,0,0,0-19.221,2.755c-5.936,4.672-6.674,12.508-7.695,23.353l-.174,1.832-2.1,12.422c-3.47,3.356-8.509,8.051-11.762,10.979q-.5.447-.983.889c-1.29-19.343-6.292-47.488-13.587-63.047-5.171-11.028-18.738-23.5-31.64-24.416a18.48,18.48,0,0,0-17.359,8.731c-3.81,5.811-2.6,12.762-.456,22.093.391,1.7.729,3.417,1.009,5.139L76.6,176.759a71.622,71.622,0,0,1-1.152,28.107L70.6,224.9C67.236,239.4,77.27,303.583,83.55,340.55a12.837,12.837,0,0,1-2.58,10.1l-24.419,45.2-.84.548a6,6,0,0,0-1.449,8.721l75.26,96.28a6.005,6.005,0,0,0,4.082,2.27,6.079,6.079,0,0,0,.646.035,6.006,6.006,0,0,0,3.827-1.379l66.366-54.962c2.172-1.8,4.2-3.744,5.894-5.41a37.6,37.6,0,0,1,13.839-8.669c20.121-7.162,50.67-29.822,81.717-60.616l69.54-62.288a31.45,31.45,0,0,0,7.327-38.464l-.285-.546,15.534-12.4a22.236,22.236,0,0,0-3.865-37.226l16.21-11.973a23.235,23.235,0,0,0-9.449-41.516ZM259.7,71.18A12.479,12.479,0,0,1,280.864,84.1L203.423,194.86a6,6,0,1,0,9.824,6.891L301.16,77.105a11.215,11.215,0,0,1,18.129,13.2L232.98,212.6a6,6,0,1,0,9.8,6.92l63.548-90.042a10.159,10.159,0,0,1,14.068-2,10.25,10.25,0,0,1,2.519,13.846l-29.765,46.93L223.748,234.4c-6.775,4.5-16.027,9.23-27.5,14.042-1.463.614-2.845,1.207-4.187,1.8,4.869-18.72,9-46.921,7.016-64.052-.871-7.532-4.648-16.625-10.254-23.621ZM90.727,357.65a24.859,24.859,0,0,0,4.654-19.109C85.41,279.852,80.271,236.31,82.274,227.67l4.84-19.98A83.549,83.549,0,0,0,88.458,174.9l-3.916-23.975q-.422-2.571-1.007-5.111c-1.34-5.842-2.352-11.01-1.193-12.778a6.538,6.538,0,0,1,6.472-3.34c7.126.506,17.636,9.03,21.626,17.54,8.18,17.446,13.7,55.915,12.685,70.546a72.416,72.416,0,0,0-9.137,17.377,6.157,6.157,0,0,0,3.328,7.954,5.992,5.992,0,0,0,7.792-3.439c4.821-12.582,9.216-17.857,18.554-26.242a71.576,71.576,0,0,1-7.984,17.628l-10.961,17.447c-7.8,12.679-18.668,76.733-24.455,113.787a12.806,12.806,0,0,1-5.649,8.735L77.539,382.162Zm312.5-157.532L272.9,296.376a6,6,0,1,0,7.129,9.652l99.647-73.6a10.172,10.172,0,0,1,12.814,3.262,10.238,10.238,0,0,1-1.968,13.9L283.8,334.79a6,6,0,0,0,7.486,9.379l81.574-65.121a19.484,19.484,0,0,1-5.279,22.259l-70.136,62.841c-35.155,34.867-62.977,52.735-77.292,57.831a49.509,49.509,0,0,0-18.225,11.414c-1.591,1.564-3.315,3.219-5.136,4.727l-61.614,51.026L67.741,402.879l33.426-21.8a24.823,24.823,0,0,0,10.952-16.935c9.187-58.824,18.144-101.747,22.79-109.3l10.93-17.4a83.539,83.539,0,0,0,11.693-30.667l4.074-24.095c.024-.141.043-.284.057-.427l.195-2.064c.657-6.973,1.277-13.559,3.17-15.049a6.529,6.529,0,0,1,7.188-1.106c6.6,2.747,13.86,14.179,14.941,23.525,2.218,19.18-4.625,57.151-10.187,70.786a72.345,72.345,0,0,0-14.524,13.882,6,6,0,1,0,9.26,7.633c9.342-11.334,15.423-14.585,29.185-20.357,12.17-5.107,22.1-10.192,29.5-15.117l122.427-81.4a12.28,12.28,0,0,1,10.135-1.655,12.508,12.508,0,0,1,5.836,20.646L250.961,268.8a6,6,0,1,0,7.1,9.67l132.18-96.663a11.223,11.223,0,0,1,12.98,18.309Z"/></svg>
