<?xml version="1.0" encoding="UTF-8" standalone="no"?>
<!DOCTYPE svg PUBLIC "-//W3C//DTD SVG 1.1//EN" "http://www.w3.org/Graphics/SVG/1.1/DTD/svg11.dtd">
<svg version="1.1" xmlns="http://www.w3.org/2000/svg" xmlns:xlink="http://www.w3.org/1999/xlink" preserveAspectRatio="xMidYMid meet" viewBox="0 0 640 640" width="640" height="640"><defs><path d="M196.73 382.77C201.75 385.06 207.69 382.84 209.98 377.82C212.27 372.8 210.05 366.86 205.03 364.57C200.01 362.28 194.07 364.5 191.78 369.52C189.49 374.54 191.71 380.48 196.73 382.77Z" id="aO6e76Sq3"></path><path d="M127.43 142.58C125.01 141.62 105.68 133.96 103.26 133.01C87.88 126.91 70.41 134.47 64.32 149.85C59.16 162.87 17.92 266.99 12.76 280.01C6.67 295.39 14.22 312.86 29.6 318.95C32.02 319.91 51.36 327.57 53.78 328.52C83.57 340.33 94.85 353.76 107.92 369.31C121.9 385.95 137.74 404.81 177.98 420.75C195.32 427.62 334.08 482.58 351.43 489.46C371.93 497.58 395.23 487.5 403.35 467C406.03 460.23 406.72 453.15 405.71 446.42C406.21 446.62 410.21 448.21 410.71 448.4C431.22 456.53 454.51 446.45 462.63 425.95C465.32 419.17 466 412.1 465 405.37C465.5 405.57 469.5 407.15 470 407.35C490.5 415.47 513.8 405.4 521.92 384.89C530.04 364.39 519.97 341.1 499.46 332.97C497.1 332.04 478.22 324.56 475.86 323.63C481.21 319.41 485.55 313.79 488.23 307.01C496.36 286.51 486.28 263.22 465.78 255.09C455.54 251.04 404.39 230.78 312.3 194.3C337.24 183.62 351.09 177.68 353.86 176.49C369.07 169.97 378.87 155.07 378.83 138.5C378.73 111.59 353.22 92.01 327.13 98.84C259.64 116.51 221.1 129.86 195.59 138.69C156.33 152.28 153.98 153.1 127.43 142.58ZM345.99 158.11C339.6 160.84 288.52 182.74 282.13 185.47C278.41 187.07 276.01 190.75 276.07 194.8C276.13 198.85 278.62 202.47 282.39 203.96C299.99 210.93 440.81 266.72 458.41 273.69C468.66 277.75 473.7 289.4 469.64 299.65C465.58 309.9 453.93 314.94 443.68 310.88C432.89 306.6 346.62 272.43 335.83 268.16C330.7 266.12 324.89 268.64 322.85 273.77C320.82 278.91 323.33 284.72 328.47 286.75C344.45 293.08 471.33 343.34 492.1 351.57C502.35 355.63 507.39 367.27 503.32 377.53C499.26 387.78 487.62 392.82 477.36 388.76C468.12 385.1 322.97 327.6 313.73 323.94C308.6 321.91 302.79 324.42 300.76 329.55C298.72 334.69 301.23 340.5 306.37 342.53C319.01 347.54 420.17 387.61 432.81 392.62C443.06 396.68 448.1 408.33 444.04 418.58C439.98 428.83 428.33 433.87 418.08 429.81C402.49 423.63 310.62 387.24 291.64 379.72C286.5 377.69 280.69 380.2 278.66 385.34C276.62 390.47 279.14 396.28 284.27 398.32C293.32 401.9 363.99 429.89 373.53 433.67C383.78 437.73 388.82 449.38 384.75 459.63C380.69 469.88 369.05 474.92 358.79 470.86C341.45 463.99 202.69 409.02 185.35 402.15C149.81 388.08 136.9 372.71 123.23 356.44C109.66 340.29 95.63 323.59 61.14 309.93C58.72 308.97 39.39 301.31 36.97 300.35C31.84 298.32 29.32 292.5 31.35 287.37C36.51 274.36 77.76 170.23 82.91 157.21C84.94 152.09 90.77 149.57 95.89 151.6C98.31 152.56 117.65 160.22 120.07 161.17C153.52 174.42 161.89 171.52 202.13 157.59C227.35 148.86 265.46 135.66 332.19 118.19C345.66 114.67 358.78 124.76 358.83 138.57C358.85 147.08 353.81 154.76 345.99 158.11Z" id="e3G52042Fs"></path><path d="M84.68 288.69C111.13 304.09 123.84 320.88 135.05 335.69C142.16 345.1 148.87 353.99 159.67 362.36C164.03 365.75 170.32 364.95 173.7 360.59C177.09 356.22 176.29 349.94 171.93 346.56C163.23 339.81 157.83 332.67 151 323.63C139.26 308.12 124.66 288.82 94.74 271.4C89.97 268.63 83.84 270.24 81.07 275.02C78.29 279.78 79.9 285.91 84.68 288.69Z" id="iJRUNFp7C"></path><path d="M516.13 542.27L465.59 454.1" id="b992pkRErN"></path><path d="M579.03 492.27L517.74 429.9" id="aZx45wIRO"></path><path d="M629.68 289.3L543.66 317.25" id="axeR6MLJq"></path><path d="M639.35 389.8L543.66 373.67" id="m6s4ntiyOp"></path><path d="M579.03 197.26L512.37 253.38" id="d6SmUFOaaC"></path></defs><g><g><g><use xlink:href="#aO6e76Sq3" opacity="1" fill="#000000" fill-opacity="1"></use><g><use xlink:href="#aO6e76Sq3" opacity="1" fill-opacity="0" stroke="#000000" stroke-width="1" stroke-opacity="0"></use></g></g><g><use xlink:href="#e3G52042Fs" opacity="1" fill="#000000" fill-opacity="1"></use><g><use xlink:href="#e3G52042Fs" opacity="1" fill-opacity="0" stroke="#000000" stroke-width="1" stroke-opacity="0"></use></g></g><g><use xlink:href="#iJRUNFp7C" opacity="1" fill="#000000" fill-opacity="1"></use><g><use xlink:href="#iJRUNFp7C" opacity="1" fill-opacity="0" stroke="#000000" stroke-width="1" stroke-opacity="0"></use></g></g><g><g><use xlink:href="#b992pkRErN" opacity="1" fill-opacity="0" stroke="#000000" stroke-width="11" stroke-opacity="1"></use></g></g><g><g><use xlink:href="#aZx45wIRO" opacity="1" fill-opacity="0" stroke="#000000" stroke-width="11" stroke-opacity="1"></use></g></g><g><g><use xlink:href="#axeR6MLJq" opacity="1" fill-opacity="0" stroke="#000000" stroke-width="11" stroke-opacity="1"></use></g></g><g><g><use xlink:href="#m6s4ntiyOp" opacity="1" fill-opacity="0" stroke="#000000" stroke-width="11" stroke-opacity="1"></use></g></g><g><g><use xlink:href="#d6SmUFOaaC" opacity="1" fill-opacity="0" stroke="#000000" stroke-width="11" stroke-opacity="1"></use></g></g></g></g></svg>