<?xml version="1.0" encoding="UTF-8" standalone="no"?>
<svg
   xmlns:dc="http://purl.org/dc/elements/1.1/"
   xmlns:cc="http://creativecommons.org/ns#"
   xmlns:rdf="http://www.w3.org/1999/02/22-rdf-syntax-ns#"
   xmlns:svg="http://www.w3.org/2000/svg"
   xmlns="http://www.w3.org/2000/svg"
   xmlns:sodipodi="http://sodipodi.sourceforge.net/DTD/sodipodi-0.dtd"
   xmlns:inkscape="http://www.inkscape.org/namespaces/inkscape"
   version="1.0"
   width="743.876676pt"
   height="310.287871pt"
   viewBox="0 0 743.876676 310.287871"
   preserveAspectRatio="xMidYMid meet"
   id="svg56"
   sodipodi:docname="logo_big8.svg"
   inkscape:version="0.92.3 (2405546, 2018-03-11)">
  <defs
     id="defs60" />
  <sodipodi:namedview
     pagecolor="#ffffff"
     bordercolor="#666666"
     borderopacity="1"
     objecttolerance="10"
     gridtolerance="10"
     guidetolerance="10"
     inkscape:pageopacity="0"
     inkscape:pageshadow="2"
     inkscape:window-width="1366"
     inkscape:window-height="713"
     id="namedview58"
     showgrid="false"
     inkscape:zoom="0.83174947"
     inkscape:cx="363.28709"
     inkscape:cy="290.10843"
     inkscape:window-x="0"
     inkscape:window-y="27"
     inkscape:window-maximized="1"
     inkscape:current-layer="g54" />
  <metadata
     id="metadata2">
Created by potrace 1.12, written by Peter Selinger 2001-2015
<rdf:RDF>
  <cc:Work
     rdf:about="">
    <dc:format>image/svg+xml</dc:format>
    <dc:type
       rdf:resource="http://purl.org/dc/dcmitype/StillImage" />
    <dc:title></dc:title>
  </cc:Work>
</rdf:RDF>
</metadata>
  <g
     transform="translate(-17.123324,328.000219) scale(0.100000,-0.100000)"
     fill="#000000"
     stroke="none"
     id="g54">
    <path
       d="m 516,3228 c -6.54909,-122.6169 -50.62515,-626.11 -60,-623 -104.58491,29.2301 -232.51788,-18.4192 -271,-109 -30,-70 -11,-117 54,-137 63,-19 140,3 200,57 58,52 26,50 394,27 l 277,-17 v -30 c 0,-49 22,-80 64,-94 75,-24 170,9 238,85 17,18 30,18 600,-19 321,-20 586,-37 591,-38 4,0 7,-14 7,-31 0,-41 15,-66 50,-84 66,-34 162,-10 235,60 l 40,38 305,-19 305,-19 6,-42 c 3,-23 11,-48 18,-57 32,-38 136,-45 199,-12 15,8 45,31 67,52 l 40,37 290,-17 c 160,-9 314,-19 343,-22 l 52,-6 -6,-34 c -8,-43 7,-44 44,-3 l 28,31 122,-7 c 131,-8 134,-10 107,-61 -46.3524,-30.9303 -59.2572,-159.6258 -116,-164 -9,0 -34,-12 -55,-27 -50,-33 -80,-33 -139,1 -45,27 -47,30 -40,62 4.3613,88.287 -56.1361,-15.5477 -120,-16 -57,0 -75,-8 -75,-32 0,-15 4,-18 18,-12 9,4 31,8 47,8 25,1 31,-3 33,-24 5,-38 31,-90 46,-90 39,0 66,-85 35,-115 -63.5433,-30.7755 -140.1276,-7.8541 -201,-45 -43,-26 -70,-25 -96,3 -19,20 -20,27 -10,55 55.8787,61.9138 -124.302,20.4121 -126,19 -33.0165,-36.8627 20.8998,-24.0716 30,-54 5.5639,-21.1333 37.2897,-41.9273 32,-64 4.3684,-25.475 39.3627,-27.0458 45,-51 7,-24 -23,-59 -48,-59 -11,0 -62,2 -112,3 -111,4 -127,15 -128,83 0,25 -4,45 -9,45 -4,0 -6,-36 -5,-79 3,-66 8,-84 27,-104 25,-26 96,-55 202,-82 36,-9 70,-21 75,-27 10,-11 -8,-9 -118,10 -27,5 -58,7 -71,5 -37,-7 -106,-77 -106,-106 0,-14 -8,-30 -17,-36 -10,-5 -14,-13 -10,-17 11,-12 41,10 46,32 4,25 29,53 63,70 71.8578,31.0885 74.9389,-41.5811 143,-30 172.0033,41.5418 254.5795,125.5144 430,169 70.0799,4.0744 169.8923,87.372 222,95 66.1898,48.11 288.5861,299.265 327,293 7.7332,45.4703 77.8641,60.3228 85,110 1,4 8,22 16,40 37,76 56,106 75,120 11,7 17,16 14,20 -3,3 10,9 30,12 63.7445,-1.7424 -50.9256,122.8478 -72,144 -31,17 -42,13 -53,-15 l -10,-27 -22,20 c -74,66 -169,104 -337,132 -63,11 -141,29 -172,41 -32,11 -67,20 -78,20 -11,0 -20,5 -20,11 0,5 -8,9 -17,7 -18,-2 -96,46 -140,87 -13,11 -40,29 -60,40 -75,38 -97,68 -113,150 -7,31 -5,44 8,59 9,11 11,16 5,12 -9,-5 -13,-1 -13,11 -1,41 -28,-19 -35,-76 -12,-102 43,-179 198,-279 120,-78 270,-131 371,-132 h 50 l -29,-30 c -15,-16 -44,-35 -64,-41 -20,-6 -51,-23 -70,-37 l -35,-26 -350,22 c -192,13 -352,24 -354,27 -5,5 37,658 43,663 2,3 118,-3 257,-12 139,-9 435,-27 658,-41 223,-14 438,-28 479,-31 l 74,-7 -7,-75 c -3,-42 -10,-80 -15,-85 -12,-12 -272,45 -389,85 -178,61 -199,65 -462,88 -152,13 -143,14 -123,-10 13,-15 30,-20 65,-20 26,0 50,-4 53,-10 3,-5 20,-10 36,-10 17,0 44,-7 61,-16 17,-9 38,-14 48,-11 9,2 39,0 66,-5 52,-10 92,-16 111,-17 6,-1 18,-7 25,-14 16,-16 121,-42 141,-34 8,3 23,0 33,-8 11,-7 37,-15 59,-18 88,-13 115,-20 121,-28 3,-5 29,-9 59,-9 30,0 57,-5 60,-11 4,-6 19,-7 37,-4 122.9141,25.743 185.2582,-61.2138 284,-76 73.3388,-9.4084 137.4373,-56.7656 209,-60 70.7362,-3.2476 144.6527,-22.2775 207,-34 126.4185,-25.7086 170.8774,-88.6207 264,-160 102.6354,-60.4969 289.2766,-103.2627 414,-104 36,0 91,-2 123,-6 164.9858,-0.6159 442.5827,8.466 571,-68 196.0524,-277.8701 5.1246,-787.5442 -161,-879 -166.1246,-91.4558 -129.021,64.5209 -253,-3 -53.6136,-30.6828 -106.7065,-91.4485 -136,-138.0343 -94.9663,-5.5166 -84.5859,-47.0648 -31.2714,44.7972 53.3145,91.862 332.8926,217.3798 334.2714,238.2371 24.7862,78.4357 163.5279,237.718 43.5043,159.6239 C 7120.4807,1471.5298 6821.5957,1243.403 6589,1350 c -134.6479,-52.7434 -109.3256,-96.6421 -166,-110 -69.1011,-6.9971 -170.23,-68.623 -247,-83 -36.8525,-8.5529 -74.5263,-23.5048 -106,-33 -115.5027,-54.4624 -248.7503,-78.3716 -355,-124 -22,-9 -82,-29 -198,-65 -42,-13 -82,-27 -88,-30 -113.2887,-51.898 -205.2148,5.23483 -263,-40 -57.7852,-45.23483 -145.4808,-108.07734 -326,-87 -8,2 -19,3 -25,2 -105.0649,-13.71558 -299.0505,5.49348 -367,-67 -51.3856,-31.60011 -143.4621,-52.52501 -199,-53 -96.0265,-42.36941 -102.1538,-49.9069 -188,-45 -38.3756,10.89899 -324.1559,41.71769 -291,82 33.1559,40.28231 113.5332,34.63353 134,18 93.1343,-51.71157 106.8704,-19.60344 179,-12 65,6 150,40 248,98 45.8419,43.0194 122.2535,44.2745 169,83 28,23 95,45 155,52 52,6 65,12 99,45 26.6908,36.2407 69.1765,41.7808 102,58 46.0975,-5.7575 190.1721,67.9654 224,81 33.8279,13.0346 140.1375,100.6122 108,121 -32.1375,20.3878 -363.3272,-59.889 -483,-109 -52.1862,-21.9705 -146.1959,-46.8985 -190,-76 -42.4152,-29.2213 -301.5728,-115.24023 -335,-91 -120.4139,-23.17294 -135.6857,-95.98159 -252,-94 -29,0 -141,-9 -148,-12 -3,-1 -57,-4 -120,-5 -226,-6 -257,-4 -270,15 -10,17 -68,21 -108,8 -29,-10 -35,-9 -58,14 -31,31 -44,100 -23,126 12,14 12,16 -1,11 -27,-9 -43,-70 -31,-116 16,-57 59,-82 139,-82 33,0 62,-3 65,-7 20.1379,-2.98499 29.2169,-29.09013 47,-39 19,-9 52,-31 72,-50 44,-40 116,-77 178,-94 25,-6 72,-22 106,-35 33,-13 98,-36 145,-51 46,-14 118,-42 159,-61 41,-19 75.2476,-26.28646 206.1282,-87.31628 C 4417.0089,344.6539 4346.0367,279.50886 4497,260 c 37,-4 97,-20 132,-35 40,-17 88,-29 125,-31 34,-1 127,-6 208,-10 l 146,-7 64,31 c 35,16 90,38 123,47 32,10 123,48 202,86 78,37 168,75 200,84 32,9 86,32 121,51 35,19 68,32 73,28 30,-18 379,52 516,105 96,37 189,111 253,200 28.6842,80.36414 139.8144,111.66388 140,110 -200.9147,-290.46511 122.4277,-190.50542 460,-108 155,37 275,66 318,74 l 32,7 v 122 c -9.3086,39.4118 -0.01,145.141 -2,157 -2,20 -8,23 -33,21 -65.975,-21.1228 -131.1585,-49.3788 -198,-55 -60.4948,-43.2976 -421.3843,-75.2231 -321,-44 28,8 60,20 70,25 36,18 69,30 134,47 76.7909,18.2245 152.0273,65.5065 225,78 33,4 57,12 95,30 l 25,13 2,358 c -25.729,239.0762 -1.101,348.2372 3,554 0,98 -2,181 -5,184 -3,3 -58,-12 -123,-34 -224,-76 -640,-136 -783,-114 -39,6 -49,13 -87,66 -24,33 -50,60 -58,60 -13,0 -13,-3 0,-22 26,-36 20,-48 -23,-48 -57,0 -85,28 -120,120 -17,44 -31,88 -31,100 0,11 -4,20 -10,20 -5,0 -10,10 -10,23 0,13 -24,59 -52,103 -54,81 -98,114 -171,129 -18,4 -59,36 -108,85 -44,44 -87,80 -97,80 -13,-1 -10,-7 14,-28 19,-16 38,-48 48,-78 18,-55 34,-73 111,-124 56,-37 165,-143 165,-159 0,-6 -5,-11 -12,-11 -9,0 -9,-3 0,-12 19,-19 14,-37 -12,-44 -31,-7 -131,18 -201,52 -36,17 -65,24 -83,20 -15,-3 -43,-2 -62,2 -29,6 -40,17 -67,65 -18,32 -42,92 -54,134 -11,42 -26,84 -31,93 -9,13 -3,24 27,53 21,20 42,37 47,37 4,0 8,5 8,10 0,18 -60,10 -81,-11 -39,-39 -52,-87 -44,-164 4,-38 10,-74 14,-80 5,-5 11,-26 14,-45 3,-19 8,-43 12,-52 10,-26 -20,-23 -114,12 -45,16 -111,35 -147,42 l -65,12 3,150 3,151 -759,48 c -417,26 -761,46 -763,43 -3,-3 -14,-152 -25,-333 -11,-180 -21,-333 -23,-340 -3,-9 -12,-8 -35,4 -57,28 -178,-12 -233,-76 l -25,-31 -308,21 c -170,11 -310,21 -311,23 -3,3 4,124 38,619 6,92 10,170 7,172 -4,4 -2367,155 -2430,155 h -37 z m 523,-103 c 218,-14 399,-29 402,-33 7,-8 -25,-540 -34,-548 -3,-3 -14,-1 -25,5 -56,30 -155,1 -224,-65 l -40,-38 -307,19 c -168,10 -307,18 -308,19 -1,1 4,96 12,211 8,116 15,225 15,243 v 34 c 99.00162,-4.6323 198.00074,-9.3176 297,-14 l 7,52 c 4,29 4,55 1,59 -101.90415,15.5283 -180.40763,18.2822 -290,26 l -3,28 c -3,26 -2,27 49,27 29,0 231,-11 448,-25 z m 1909,-154 3,-33 -48,6 c -88.013,8.505 -161.0227,12.7142 -250,18 l -6,-58 c -3,-32 -5,-59 -4,-60 1,-2 67,-7 146,-13 78,-5 145,-12 148,-14 5,-5 -17,-369 -23,-376 -2,-2 -9,1 -16,7 -48,39 -175,8 -240,-59 l -37,-39 -588,38 -588,37 1,25 c 10,215 39,636 45,640 4,3 333,-15 731,-40 l 723,-45 z m 2024,-657 c 26,-17 41,-35 49,-64 7,-22 10,-42 8,-45 -4,-3 -252,12 -399,25 -3,0 2,5 10,10 8,5 35,10 60,10 47,0 79,16 140,68 41,35 72,34 132,-4 z m -58,-274 c -18,0 -27,19 -16,33 7,8 6,25 -4,52 -7,22 -14,43 -14,48 0,4 29,7 65,7 118.8546,32.0924 -19.064,-135.6638 -31,-140 z m 166,11 c 0,-18 -45,-71 -60,-71 -14,0 -13,8 11,56 20,43 49,52 49,15 z m 1157,-958 c -39.3387,-32.314 -21.0544,-95.46198 -153,-135 -131.9456,-39.53802 -545.2559,-305.90001 -776,-350 -21,-1 -38,-5 -38,-10 -55.5663,-10.81485 -115.3957,18.22733 -25,37 29,5 75,31 75,42 0,7 6,13 13,13 8,0 8,3 2,8 -20,14 -8,51 29,86 82.4075,74.54066 249.229,127.72458 346,157 109.7287,26.25387 269.2625,120.8264 370,122 43.8591,-2.2655 196.3387,62.314 157,30 z m 698,-51 c -12,-10 -114,-39 -166,-47 -42.6248,-4.34829 -138.0018,-112.22944 -108,-52 27.6877,65.0019 111.8527,83.6083 174,87 22,1 49,5 60,10 26,11 52,12 40,2 z M 6600,875 c 0,-2 -30,-24 -67,-48 -90,-58 -93,-59 -93,-53 0,4 150,105 158,106 1,0 2,-2 2,-5 z M 6357,724 c -21,-14 -43,-24 -49,-22 -6,2 6,14 28,25 54,30 66,28 21,-3 z m -132,-64 c -3,-5 -32,-17 -63,-26 -31,-9 -97,-36 -146,-61 -48,-24 -90,-42 -93,-40 -6,7 93,59 158,84 152,58 154,59 144,43 z M 4894,554 c -51.9401,-22.7268 -79.4988,-30.1599 -122,-51 -46,-21 -78,-11 -77,23 0,23 6,29 45,40 59.0473,-14.36174 148.068,13.61214 154,11 l 23,-11 c 0,0 31.2497,3.66066 -23,-12 z m 256,-193 c -1,-20 -22,-34 -52,-34 -18,1 -27,-1 -20,-4 6,-3 12,-9 12,-15 0,-6 -7,-8 -15,-4 -8,3 -15,1 -15,-3 0,-5 -16,-9 -35,-8 -27,1 -34,5 -32,19 4,22 13,31 35,33 9,1 24,5 32,8 38,14 90,19 90,8 z"
       id="path4"
       inkscape:connector-curvature="0"
       sodipodi:nodetypes="cccccccsccccscccccccccccccccccccccccscccsccccccccsccsccccccscccccccccccccccccccssccccccccccccscccccsscccscccscsscccsccccsccccccccczcczczccccccczccccczccccccczzccccccccscccsccccccszccccccccssccccccccccccsccccccscscscscsssccsccccsssccccscccsssccscccccccccccccccccscccccccccscsccccccsccccccccccccccccccccccccsscccccsccsscszzcccsscccczsccccsscscscscccsccccccccccccccscsccccc" />
    <path
       d="M4238 2894 c-15 -15 -8 -35 10 -30 9 3 39 7 65 7 27 1 44 6 39 11 -12 12 -105 22 -114 12z"
       id="path6" />
    <path
       d="m 6069,2204 c 89.5789,-92.8936 180.227,-141.451 181,-142 62.2203,-25.454 190.7292,-112.6334 209,-64 14.8652,53.0709 -114.1133,133.8624 -145,160 -39.5058,37.9054 -204.8445,84.767 -245,46 z"
       id="path12"
       inkscape:connector-curvature="0"
       sodipodi:nodetypes="ccccc" />
    <path
       d="m 5888,2152 c -29.7088,1.6204 -53.0494,-37.7089 -19,-40 34.0494,-2.2911 64.8086,-31.6062 28,-75 -64.857,-74.2861 -84.9684,-115.1881 -4,-84 5.9019,2.2733 22.1563,0.4414 34,-4 12.1723,-4.5646 10.3712,-9.3492 27,0 16.6288,9.3492 115.4936,-2.4081 156,-1 40.5064,1.4081 56.4719,5.7173 34,56 -22.4719,50.2827 -23.7328,40.2416 -71,79 -59.5106,48.7978 -145.0543,60.7088 -143,62 2.0543,1.2912 -16.825,5.7449 -42,7 z"
       id="path16"
       inkscape:connector-curvature="0"
       sodipodi:nodetypes="czcsszzsszc" />
    <path
       d="m 6207,1337 c -112.0152,-18.8427 -106.8619,-26.1002 -197,-31 -136.0999,-11.4673 -250.2973,-33.1878 -368,-21 -62.5987,7.1229 -90.6188,-8.4154 -150,-50 -59.3812,-41.5846 -203.6544,-94.7933 -264,-135 -60.3456,-40.2067 -124.3897,-4.2006 -24,-72 8.0518,5.5237 13.3794,-30.43276 72,-56 58.6206,-25.56724 196.1565,141.064 272,158 8,0 26,8 40,18 77,50 110,66 133,63 32.5077,11.3102 48.8867,24.2576 76,16 120.6462,-16.8098 196.4489,33.5153 310,37 60.4535,-6.6081 121.9023,26.3341 176,29 33.0562,-11.879 78.6609,40.8766 46,50 -40.5402,16.0246 -98.6654,-8.3852 -122,-6 z"
       id="path46"
       inkscape:connector-curvature="0"
       sodipodi:nodetypes="ccczzczcccccccc" />
    <path
       d="M3435 1134 c-27 -7 -69 -18 -92 -23 -47 -12 -120 -47 -129 -63 -7 -11 38 0 46 12 3 4 30 15 60 25 30 10 62 20 70 23 8 3 17 6 20 7 3 1 38 5 78 9 39 4 72 12 72 17 0 13 -66 9 -125 -7z"
       id="path52" />
  </g>
</svg>
