<?xml version="1.0" encoding="UTF-8" standalone="no"?>
<svg
   xmlns:dc="http://purl.org/dc/elements/1.1/"
   xmlns:cc="http://creativecommons.org/ns#"
   xmlns:rdf="http://www.w3.org/1999/02/22-rdf-syntax-ns#"
   xmlns:svg="http://www.w3.org/2000/svg"
   xmlns="http://www.w3.org/2000/svg"
   xmlns:sodipodi="http://sodipodi.sourceforge.net/DTD/sodipodi-0.dtd"
   xmlns:inkscape="http://www.inkscape.org/namespaces/inkscape"
   inkscape:version="1.0rc1 (09960d6, 2020-04-09)"
   sodipodi:docname="ta.svg"
   version="1.1"
   height="499.4017"
   width="410.03439"
   viewBox="0 0 410.03439 499.40171"
   data-name="Layer 1"
   id="Layer_1">
  <metadata
     id="metadata23">
    <rdf:RDF>
      <cc:Work
         rdf:about="">
        <dc:format>image/svg+xml</dc:format>
        <dc:type
           rdf:resource="http://purl.org/dc/dcmitype/StillImage" />
        <dc:title></dc:title>
      </cc:Work>
    </rdf:RDF>
  </metadata>
  <defs
     id="defs21" />
  <sodipodi:namedview
     inkscape:current-layer="Layer_1"
     inkscape:window-maximized="0"
     inkscape:window-y="23"
     inkscape:window-x="0"
     inkscape:cy="169.54115"
     inkscape:cx="210.3843"
     inkscape:zoom="0.99804688"
     fit-margin-bottom="0"
     fit-margin-right="0"
     fit-margin-left="0"
     fit-margin-top="0"
     showgrid="false"
     id="namedview19"
     inkscape:window-height="656"
     inkscape:window-width="1145"
     inkscape:pageshadow="2"
     inkscape:pageopacity="0"
     guidetolerance="10"
     gridtolerance="10"
     objecttolerance="10"
     borderopacity="1"
     bordercolor="#666666"
     pagecolor="#ffffff" />
  <path
     style="stroke:#000000;stroke-width:4;stroke-miterlimit:4;stroke-dasharray:none;stroke-opacity:1"
     inkscape:connector-curvature="0"
     id="path10"
     d="m 305.63438,75.185708 a 6,6 0 0 0 8.053,-2.674 l 31,-61.829 a 6.0004922,6.0004922 0 0 0 -10.728,-5.3789997 l -31,61.8289997 a 6,6 0 0 0 2.675,8.053 z" />
  <path
     style="stroke:#000000;stroke-width:4;stroke-miterlimit:4;stroke-dasharray:none;stroke-opacity:1"
     inkscape:connector-curvature="0"
     id="path12"
     d="m 319.31938,92.059708 a 6,6 0 0 0 8.234,2.053 l 65.711,-39.484 a 6,6 0 0 0 -6.181,-10.285 l -65.711,39.484 a 6,6 0 0 0 -2.053,8.232 z" />
  <path
     style="stroke:#000000;stroke-width:4;stroke-miterlimit:4;stroke-dasharray:none;stroke-opacity:1"
     inkscape:connector-curvature="0"
     id="path14"
     d="m 402.00938,104.19171 h -0.064 l -67.3,0.7 a 6.000075,6.000075 0 0 0 0.06,12 h 0.064 l 67.295,-0.7 a 6.000075,6.000075 0 0 0 -0.06,-12 z" />
  <path
     style="stroke:#000000;stroke-width:4;stroke-miterlimit:4;stroke-dasharray:none;stroke-opacity:1;paint-order:stroke fill markers"
     inkscape:connector-curvature="0"
     id="path16"
     d="m 349.90138,161.95171 a 23.016,23.016 0 0 0 -16.8,3.24 24.459,24.459 0 0 0 -37.929,-18.5 l -28.447,18.915 15.3,-24.123 a 22.236,22.236 0 0 0 -15.565,-34.078 l 11.644,-16.500002 a 23.2,23.2 0 0 0 -37.045,-27.908 24.451,24.451 0 0 0 -41.846,-5.475 l -70.334,90.685002 a 23.665,23.665 0 0 0 -3.056,-1.553 18.48,18.48 0 0 0 -19.221,2.755 c -5.936,4.672 -6.674001,12.508 -7.695001,23.353 l -0.174,1.832 -2.1,12.422 c -3.47,3.356 -8.509,8.051 -11.762,10.979 q -0.5,0.447 -0.983,0.889 c -1.29,-19.343 -6.292,-47.488 -13.587,-63.047 -5.171,-11.028 -18.738,-23.5 -31.64,-24.416 a 18.48,18.48 0 0 0 -17.359,8.731 c -3.81,5.811 -2.6,12.762 -0.456,22.093 0.391,1.7 0.729,3.417 1.009,5.139 l 3.741,23.072 a 71.622,71.622 0 0 1 -1.152,28.107 l -4.848,20.034 c -3.364,14.5 6.67,78.683 12.95,115.65 a 12.837,12.837 0 0 1 -2.58,10.1 l -24.4190008,45.2 -0.84,0.548 a 6,6 0 0 0 -1.449,8.721 l 75.2600008,96.28 a 6.005,6.005 0 0 0 4.082,2.27 6.079,6.079 0 0 0 0.646,0.035 6.006,6.006 0 0 0 3.827,-1.379 l 66.366001,-54.962 c 2.172,-1.8 4.2,-3.744 5.894,-5.41 a 37.6,37.6 0 0 1 13.839,-8.669 c 20.121,-7.162 50.67,-29.822 81.717,-60.616 l 69.54,-62.288 a 31.45,31.45 0 0 0 7.327,-38.464 l -0.285,-0.546 15.534,-12.4 a 22.236,22.236 0 0 0 -3.865,-37.226 l 16.21,-11.973 a 23.235,23.235 0 0 0 -9.449,-41.516 z m -141.205,-97.074002 a 12.479,12.479 0 0 1 21.164,12.92 l -77.441,110.760002 a 6,6 0 1 0 9.824,6.891 l 87.913,-124.646002 a 11.215,11.215 0 0 1 18.129,13.2 l -86.309,122.295002 a 6,6 0 1 0 9.8,6.92 l 63.548,-90.042 a 10.159,10.159 0 0 1 14.068,-2 10.25,10.25 0 0 1 2.519,13.846 l -29.765,46.93 -69.402,46.146 c -6.775,4.5 -16.027,9.23 -27.5,14.042 -1.463,0.614 -2.845,1.207 -4.187,1.8 4.869,-18.72 9,-46.921 7.016,-64.052 -0.871,-7.532 -4.648,-16.625 -10.254,-23.621 z M 39.723379,351.34771 a 24.859,24.859 0 0 0 4.654,-19.109 c -9.971,-58.689 -15.11,-102.231 -13.107,-110.871 l 4.84,-19.98 a 83.549,83.549 0 0 0 1.344,-32.79 l -3.916,-23.975 q -0.422,-2.571 -1.007,-5.111 c -1.34,-5.842 -2.352,-11.01 -1.193,-12.778 a 6.538,6.538 0 0 1 6.472,-3.34 c 7.126,0.506 17.636,9.03 21.626,17.54 8.18,17.446 13.7,55.915 12.685,70.546 a 72.416,72.416 0 0 0 -9.137,17.377 6.157,6.157 0 0 0 3.328,7.954 5.992,5.992 0 0 0 7.792,-3.439 c 4.821,-12.582 9.216,-17.857 18.554,-26.242 a 71.576,71.576 0 0 1 -7.984,17.628 l -10.961,17.447 c -7.8,12.679 -18.668,76.733 -24.455,113.787 a 12.806,12.806 0 0 1 -5.649,8.735 l -17.074,11.133 z m 312.500001,-157.532 -130.327,96.258 a 6,6 0 1 0 7.129,9.652 l 99.647,-73.6 a 10.172,10.172 0 0 1 12.814,3.262 10.238,10.238 0 0 1 -1.968,13.9 l -106.722,85.2 a 6.0001216,6.0001216 0 0 0 7.486,9.379 l 81.574,-65.121 a 19.484,19.484 0 0 1 -5.279,22.259 l -70.136,62.841 c -35.155,34.867 -62.977,52.735 -77.292,57.831 a 49.509,49.509 0 0 0 -18.225,11.414 c -1.591,1.564 -3.315,3.219 -5.136,4.727 l -61.614001,51.026 -67.437,-86.267 33.426,-21.8 a 24.823,24.823 0 0 0 10.952,-16.935 c 9.187,-58.824 18.144,-101.747 22.79,-109.3 l 10.93,-17.4 a 83.539,83.539 0 0 0 11.693001,-30.667 l 4.074,-24.095 c 0.024,-0.141 0.043,-0.284 0.057,-0.427 l 0.195,-2.064 c 0.657,-6.973 1.277,-13.559 3.17,-15.049 a 6.529,6.529 0 0 1 7.188,-1.106 c 6.6,2.747 13.86,14.179 14.941,23.525 2.218,19.18 -4.625,57.151 -10.187,70.786 a 72.345,72.345 0 0 0 -14.524,13.882 6.0002144,6.0002144 0 1 0 9.26,7.633 c 9.342,-11.334 15.423,-14.585 29.185,-20.357 12.17,-5.107 22.1,-10.192 29.5,-15.117 l 122.427,-81.4 a 12.28,12.28 0 0 1 10.135,-1.655 12.508,12.508 0 0 1 5.836,20.646 l -117.828,86.821 a 6,6 0 1 0 7.1,9.67 l 132.18,-96.663 a 11.223,11.223 0 0 1 12.98,18.309 z" />
</svg>
